<svg xmlns="http://www.w3.org/2000/svg" xmlns:xlink="http://www.w3.org/1999/xlink" width="220" height="47.348" viewBox="0 0 220 47.348"><defs><style>.a{fill:none;}.b{clip-path:url(#a);}.c{fill:#fff;}</style><clipPath id="a"><rect class="a" width="220" height="47.348"/></clipPath></defs><g class="b"><path class="c" d="M278.046,413.537l-2.175-6.252H262.144l-2.31,6.252H251L264.183,378.2h10.465L287.7,413.537Zm-7.339-20.794a40.4,40.4,0,0,1-1.767-5.3h0c-.408,1.631-.951,3.4-1.495,5.029l-3.126,8.562h9.514Z" transform="translate(-207.998 -366.733)"/><path class="c" d="M294.139,413.708c-2.582,0-7.2-.136-12.639-.136V378.236c3.534,0,9.378-.136,14.134-.136,9.514,0,13.455,3.262,13.455,8.834a8.1,8.1,0,0,1-5.436,7.747v.136a7.718,7.718,0,0,1,5.98,7.883C309.361,407.864,305.692,413.708,294.139,413.708Zm-.272-29.492H290.2v8.426a20.29,20.29,0,0,0,2.582.136c4.213,0,6.931-1.495,6.931-4.621C299.576,385.847,298.217,384.216,293.868,384.216Zm-.68,14H290.2v9.106a31.257,31.257,0,0,0,3.805.272c4.349,0,6.252-2.039,6.252-4.893C300.119,399.438,297.537,398.215,293.188,398.215Z" transform="translate(-196.997 -366.768)"/><path class="c" d="M307.5,413.537V378.2h8.834v27.59h11.552v7.747Z" transform="translate(-187.623 -366.733)"/><path class="c" d="M326,413.537V378.2h21.745v6.931H334.7V392.2h12.368v6.66H334.7v7.747h13.047v7.067H326Z" transform="translate(-180.949 -366.733)"/><path class="c" d="M365.7,413.572l-8.7-13.863h-.272v13.863H347.9V378.236c2.854-.136,8.29-.136,12.775-.136,8.7,0,13.863,3.4,13.863,10.193,0,5.436-3.534,8.834-8.562,10.057.68.951,1.631,2.446,2.718,3.941l7.883,11.416H365.7Zm-6.388-28.813a18.211,18.211,0,0,0-2.718.136V394a22.016,22.016,0,0,0,2.99.136c3.4,0,5.572-2.039,5.572-4.893S362.85,384.76,359.316,384.76Z" transform="translate(-173.021 -366.768)"/><path class="c" d="M384.87,377.067a7.224,7.224,0,0,1-7.2,7.067,6.935,6.935,0,0,1-7.067-7.067,7.135,7.135,0,0,1,14.27,0Zm-12.775,0a5.715,5.715,0,0,0,5.572,5.708,5.512,5.512,0,0,0,5.572-5.572,5.573,5.573,0,1,0-11.145-.136Zm6.931,3.941-2.175-3.4h-.136v3.4h-1.359v-7.883h2.31c1.9,0,2.582.815,2.582,1.9a2.156,2.156,0,0,1-2.039,2.31,4.454,4.454,0,0,0,.815,1.087l1.631,2.446h-1.631Zm-1.359-6.8h-.951v2.446h.544c1.223,0,1.631-.68,1.631-1.359C378.89,374.485,378.619,374.213,377.667,374.213Z" transform="translate(-164.87 -369.728)"/><path class="c" d="M249.436,392.521h-6.659v6.667h6.659v9.252a19.572,19.572,0,0,1-5.844.816c-9.378,0-14.678-5.714-14.678-15.51,0-10.34,6.524-16.055,15.629-16.055A35.558,35.558,0,0,1,256.775,380l1.359-8.163a44.426,44.426,0,0,0-13.047-2.041c-15.9,0-25.687,10.34-25.687,24.762,0,14.014,8.7,22.585,23.24,22.585a45.121,45.121,0,0,0,15.765-2.857V392.385h-8.97Z" transform="translate(-219.4 -369.8)"/></g></svg>