<?xml version="1.0" encoding="UTF-8" standalone="no"?>
<svg
   width="450"
   height="250"
   viewBox="0 0 119.0625 66.145834"
   version="1.1"
   id="svg1527"
   inkscape:version="1.2.1 (9c6d41e410, 2022-07-14)"
   sodipodi:docname="logo sesc.svg"
   xmlns:inkscape="http://www.inkscape.org/namespaces/inkscape"
   xmlns:sodipodi="http://sodipodi.sourceforge.net/DTD/sodipodi-0.dtd"
   xmlns="http://www.w3.org/2000/svg"
   xmlns:svg="http://www.w3.org/2000/svg"
   xmlns:rdf="http://www.w3.org/1999/02/22-rdf-syntax-ns#"
   xmlns:cc="http://creativecommons.org/ns#"
   xmlns:dc="http://purl.org/dc/elements/1.1/">
  <defs
     id="defs1521" />
  <sodipodi:namedview
     id="base"
     pagecolor="#ffffff"
     bordercolor="#666666"
     borderopacity="1.0"
     inkscape:pageopacity="0.0"
     inkscape:pageshadow="2"
     inkscape:zoom="0.35"
     inkscape:cx="-251.42857"
     inkscape:cy="365.71429"
     inkscape:document-units="mm"
     inkscape:current-layer="layer1"
     inkscape:document-rotation="0"
     showgrid="false"
     inkscape:window-width="1496"
     inkscape:window-height="1013"
     inkscape:window-x="0"
     inkscape:window-y="0"
     inkscape:window-maximized="0"
     inkscape:showpageshadow="2"
     inkscape:pagecheckerboard="0"
     inkscape:deskcolor="#d1d1d1" />
  <metadata
     id="metadata1524">
    <rdf:RDF>
      <cc:Work
         rdf:about="">
        <dc:format>image/svg+xml</dc:format>
        <dc:type
           rdf:resource="http://purl.org/dc/dcmitype/StillImage" />
      </cc:Work>
    </rdf:RDF>
  </metadata>
  <g
     inkscape:label="Layer 1"
     inkscape:groupmode="layer"
     id="layer1"
     transform="translate(-81.663648,-51.797983)">
    <g
       id="g1290"
       transform="matrix(0.98273442,0,0,-0.98273442,110.3218,85.631044)"
       style="display:inline;fill:#ffffff;filter:url(#filter1459)"
       inkscape:export-filename="/home/crisbotta/Sync/sesc/festa/equilibrio/festa_card_equlibrio01.png"
       inkscape:export-xdpi="150"
       inkscape:export-ydpi="150">
      <path
         d="m 0,0 c 32.769,30.31 74.4,21.983 84.928,16.862 0,0 -14.158,10.654 -32.855,10.654 -21.447,0 -38.29,-11.673 -47.738,-20.914 L 4.312,6.61 c -2.899,1.056 -6.065,1.6 -9.478,1.6 -8.235,0 -13.987,-4.119 -13.987,-10.315 0,-4.721 2.455,-6.885 6.752,-8.364 -0.01,-0.01 -0.021,-0.02 -0.035,-0.03 h 10e-4 c -3.206,-2.492 -7.108,-6.608 -9.662,-9.401 0.778,-0.599 1.653,-1.225 3.313,-2.193 4.402,-2.397 9.544,-3.876 14.939,-3.876 8.792,0 14.342,3.786 14.635,9.985 1.858,-5.646 7.063,-9.312 14.092,-9.312 1.354,0 3.298,0.045 6.501,0.84 v 6.02 c -2.976,-0.86 -4.253,-0.95 -5.999,-0.86 -3.496,0.18 -6.35,2.151 -7.17,5.604 h 21.149 c 0.055,0.707 0.109,1.16 0.109,1.918 v 0.102 c 0,0.744 -0.04,1.482 -0.122,2.21 1.608,-2.217 5.132,-3.12 9.967,-4.099 5.889,-1.195 6.216,-2.095 6.216,-3.477 0,-1.219 -1.569,-2.619 -5.048,-2.504 -3.574,0.119 -7.758,1.183 -10.99,3.01 v -6.953 c 3.371,-1.509 7.646,-2.448 10.967,-2.448 7.966,0 13.434,4.667 13.434,9.708 0,0.112 -0.005,0.221 -0.008,0.33 1.41,-3.303 4.18,-5.81 7.329,-7.342 3.137,-1.526 6.495,-2.005 9.255,-2.024 1.623,-0.012 3.028,0.106 4.382,0.321 v 5.881 c -0.683,-0.11 -1.388,-0.167 -2.106,-0.167 -5.895,0 -10.678,3.709 -10.678,8.283 0,4.577 4.783,8.285 10.678,8.285 0.718,0 1.423,-0.058 2.106,-0.164 v 5.79 C 83.585,3.141 82.23,3.226 80.762,3.226 70.583,3.226 62.9,-2.867 62.9,-11.015 c 0,-0.557 0.036,-1.1 0.104,-1.629 -1.493,2.51 -4.806,3.785 -9.518,4.758 -6.002,1.219 -6.832,1.751 -6.712,3.072 0.115,1.258 2.131,2.418 5.139,2.418 1.924,0 4.5,-0.457 6.792,-1.526 v 6.061 c -2.211,0.678 -4.625,1.129 -7.231,1.129 -7.574,0 -12.656,-3.629 -13.059,-8.613 -0.003,-0.031 -0.003,-0.061 -0.005,-0.092 -1.829,4.91 -6.103,8.592 -13.462,8.592 -8.854,0 -14.903,-6.474 -14.903,-14.324 0,-0.199 0.004,-0.396 0.011,-0.592 -1.665,3.613 -6.007,5.278 -11.87,6.556 -6.923,1.487 -7.909,2.167 -7.909,3.747 0,1.514 1.77,2.807 4.526,2.749 2.145,-0.046 3.424,-0.559 4.012,-0.77 0.001,0.001 0.002,0.002 0.003,0.003 C -1.183,0.523 -1.184,0.522 -1.185,0.521 Z m 25.054,-3.148 c 3.771,0 6.129,-2.319 6.662,-5.751 H 18.214 c 0.707,3.482 3.124,5.751 6.84,5.751 m -31.04,-8.976 c 6.793,-1.458 7.36,-2.684 7.36,-4.031 0,-1.588 -1.89,-2.536 -5.053,-2.536 -3.617,0 -6.964,1.065 -10.468,3.331 v 0 c 1.273,1.724 2.519,3.328 3.407,4.36 0,0 0,0 -10e-4,0 0.004,0.004 0.007,0.008 0.01,0.012 1.428,-0.403 3.012,-0.766 4.745,-1.136"
         style="fill:#ffffff;fill-opacity:1;fill-rule:nonzero;stroke:none"
         id="path1292" />
    </g>
  </g>
</svg>
