<?xml version="1.0" encoding="UTF-8" standalone="no"?>
<!-- Created with Inkscape (http://www.inkscape.org/) -->

<svg
   width="129.26617mm"
   height="129.26617mm"
   viewBox="0 0 129.26617 129.26617"
   version="1.1"
   id="svg4932"
   sodipodi:docname="crisb_logo.svg"
   inkscape:version="1.2.1 (9c6d41e410, 2022-07-14)"
   xmlns:inkscape="http://www.inkscape.org/namespaces/inkscape"
   xmlns:sodipodi="http://sodipodi.sourceforge.net/DTD/sodipodi-0.dtd"
   xmlns="http://www.w3.org/2000/svg"
   xmlns:svg="http://www.w3.org/2000/svg">
  <sodipodi:namedview
     id="namedview4934"
     pagecolor="#ffffff"
     bordercolor="#666666"
     borderopacity="1.0"
     inkscape:showpageshadow="2"
     inkscape:pageopacity="0.0"
     inkscape:pagecheckerboard="0"
     inkscape:deskcolor="#d1d1d1"
     inkscape:document-units="mm"
     showgrid="false"
     inkscape:zoom="0.76613356"
     inkscape:cx="264.31423"
     inkscape:cy="267.57737"
     inkscape:window-width="1920"
     inkscape:window-height="1015"
     inkscape:window-x="0"
     inkscape:window-y="0"
     inkscape:window-maximized="1"
     inkscape:current-layer="layer1" />
  <defs
     id="defs4929" />
  <g
     inkscape:label="Layer 1"
     inkscape:groupmode="layer"
     id="layer1"
     transform="translate(-34.136681,-77.650635)">
    <path
       d="m 95.79875,188.55299 c 0,0 -2.25057,-2.67423 -5.25852,-5.68549 l -5.46891,-5.47498 h -6.0626 c -3.33435,0 -6.06248,0.11839 -6.06248,0.26315 0,0.14477 -0.51511,0.79392 -1.14464,1.44262 -2.05614,2.11871 -5.14934,2.38551 -7.58088,0.65419 -1.61454,-1.14969 -2.53335,-3.80461 -2.00774,-5.80116 1.233,-4.68243 7.05984,-5.82742 10.10294,-1.98514 l 0.97978,1.2371 h 3.43803 c 2.60254,0 3.41448,-0.091 3.34119,-0.37412 -0.0532,-0.20571 -3.01537,-3.25225 -6.58272,-6.77008 l -6.48592,-6.39606 -1.35265,0.20287 c -6.13851,0.92052 -9.26029,-6.81185 -4.16081,-10.30604 2.40469,-1.64777 6.17435,-0.87989 7.80752,1.59046 0.68727,1.0396 0.80316,1.53017 0.80316,3.40216 v 2.18755 l 6.431,6.43626 c 3.53688,3.53985 6.6003,6.43614 6.80753,6.43614 0.2804,0 0.37662,-0.86253 0.37662,-3.37774 v -3.37786 l -1.30171,-1.0881 c -2.30778,-1.92907 -2.90313,-4.4637 -1.65427,-7.04317 1.08707,-2.2459 3.69123,-3.44487 6.38465,-2.93957 2.13618,0.40073 4.32988,3.19689 4.34482,5.53822 0.009,1.46558 -1.04472,3.44487 -2.41084,4.52672 l -1.17341,0.92941 v 11.77743 l 4.12895,4.12109 c 2.27077,2.26654 4.22337,4.02642 4.33891,3.91088 0.11541,-0.11541 0.21007,-6.74119 0.21007,-14.72372 V 153.352 l -4.11458,-4.16822 c -2.263,-2.29246 -6.2272,-6.17459 -8.80955,-8.62688 l -4.69498,-4.45878 H 62.8484 l -1.43929,1.48542 c -1.63745,1.68993 -2.50688,2.10535 -4.40649,2.10535 -1.77895,0 -3.06962,-0.57815 -4.22325,-1.89219 -0.82396,-0.93846 -1.28394,-2.43442 -1.27122,-3.75618 0.012,-1.25088 0.44726,-2.59264 1.27122,-3.53096 1.16244,-1.324 2.44544,-1.89231 4.27234,-1.89231 1.83886,0 3.21649,0.69656 4.51756,2.28445 l 1.07044,1.30642 h 8.37986 c 2.00854,0 3.16276,-0.12055 3.30136,-0.3449 0.13026,-0.21075 -2.07373,-2.60916 -5.66769,-6.16762 l -5.88095,-5.82272 -0.004,-3.30007 c -0.002,-3.56121 -0.17672,-5.29518 -0.19049,-5.38214 -0.24531,-0.1 -0.69452,-0.44046 -1.23305,-0.81675 -1.35915,-0.94931 -2.16299,-2.65552 -2.16116,-4.58654 0.004,-4.47978 4.95196,-7.06062 8.74515,-4.56176 3.06616,2.01984 3.10464,7.24102 0.0677,9.18985 -0.57552,0.36921 -1.21017,0.76707 -1.21017,0.76707 0,0 -0.12124,1.86902 -0.0688,4.6831 l 0.0952,1.94151 5.53581,5.36971 c 3.04473,2.95325 5.63676,5.31033 5.76028,5.23774 0.1233,-0.0724 0.22434,-1.644 0.22434,-3.49201 v -3.36016 l -1.37959,-1.15321 c -2.24589,-1.87734 -2.8279,-4.39301 -1.60222,-6.925 2.21004,-4.5653 9.13322,-3.81283 10.48701,1.13996 0.60622,2.21779 -0.48818,4.97092 -2.43255,6.11944 l -0.88331,0.52175 v 11.9852 l 6.65546,6.66038 c 3.66052,3.66314 6.82488,6.66046 7.03198,6.66046 0.29888,0 0.37653,-4.24083 0.37653,-20.56938 v -20.56941 l -4.09369,-3.94275 -5.68116,-5.53012 -1.96584,0.0495 c -1.64264,0.0414 -2.18766,-0.0808 -3.31551,-0.7439 -3.51726,-2.0678 -3.64603,-7.19901 -0.23723,-9.45482 1.6715,-1.10627 4.326,-1.16246 5.99533,-0.12719 2.11735,1.31314 3.13785,3.59704 2.62583,5.87615 l -0.26713,1.18906 5.22061,5.26253 c 2.0017,2.01777 3.77687,3.67501 3.95245,3.67501 0.17548,0 1.91673,-1.60176 3.86912,-3.55938 l 1.96261,-1.97174 -0.20811,-1.38828 c -0.51394,-3.42846 2.1969,-6.74096 5.51698,-6.74096 1.34248,0 3.21881,0.87028 4.24492,1.96903 3.607,3.86168 0.0369,10.02303 -5.34047,9.21633 l -1.36223,-0.20436 -2.42022,2.41198 -4.0078,3.99949 v 29.25427 c 0,16.08986 0.10675,29.25429 0.23699,29.25429 0.13039,0 2.28482,-2.06333 4.78782,-4.58504 l 4.55068,-4.58518 v -11.94866 l -1.37948,-1.15319 c -1.59638,-1.33439 -2.21128,-2.58839 -2.21128,-4.50936 0,-1.8132 0.57287,-3.09391 1.90828,-4.2664 1.984,-1.74219 5.25783,-1.75372 7.22584,-0.0259 2.84503,2.49796 2.7828,6.02823 -0.15344,8.69173 l -1.49982,1.36064 0.004,3.40375 c 0.002,1.87211 0.13267,3.60586 0.28897,3.85279 0.22684,0.35804 1.34579,-0.6125 5.53137,-4.79729 l 5.24685,-5.24605 v -9.83205 l -4.11454,-4.10348 -4.11446,-4.10349 -1.40265,0.16359 c -2.02873,0.23666 -3.40217,-0.11118 -4.60366,-1.16611 -2.55916,-2.2469 -2.81879,-5.44163 -0.64367,-7.91893 2.37409,-2.70403 6.5825,-2.51427 8.80225,0.39685 0.75029,0.98411 0.84198,1.3523 0.85705,3.44304 l 0.017,2.3411 2.1758,2.39808 c 1.19669,1.31883 2.3,2.32123 2.45184,2.22737 0.15777,-0.0974 0.27594,-3.75723 0.27594,-8.54879 v -8.37846 l -1.32433,-1.20536 c -2.18287,-1.9865 -2.77962,-4.33377 -1.70406,-6.70171 0.87246,-1.92084 3.12282,-3.42556 5.123,-3.42556 2.00021,0 4.25044,1.50472 5.123,3.42556 1.05673,2.32637 0.40666,4.9457 -1.64776,6.63903 l -1.09051,0.89895 0.0792,8.805 0.0793,8.80499 2.46178,-2.40745 2.4619,-2.40732 -0.18426,-1.5554 c -0.58042,-4.90073 4.65871,-8.32274 8.63718,-5.64167 5.03987,3.39635 2.0253,11.03739 -4.03731,10.23321 l -1.51634,-0.20114 -3.98624,3.97811 -3.98636,3.97802 v 11.34336 l -5.53582,5.56381 c -3.04471,3.06014 -5.53583,5.72763 -5.53583,5.92776 0,0.27685 1.92029,0.36408 8.01597,0.36408 h 8.016 l 1.15307,-1.37959 c 1.33484,-1.59685 2.58839,-2.21131 4.51174,-2.21131 2.35139,0 4.72729,1.70623 5.38605,3.86797 1.4482,4.75208 -3.56519,8.9799 -7.97659,6.72671 -0.43613,-0.22262 -1.25698,-0.94714 -1.82416,-1.60974 l -1.03127,-1.20482 h -21.20604 l -6.49939,6.52393 -6.49938,6.52395 v 5.87661 c 0,3.986 0.10696,5.94272 0.33244,6.08211 0.19329,0.11942 2.29303,-1.75233 5.01557,-4.47087 l 4.68312,-4.67628 h 13.50816 l 0.98822,-1.22968 c 2.71558,-3.37909 7.77121,-2.96638 9.58602,0.78262 1.72355,3.56039 -0.49424,7.66009 -4.39372,8.12192 -1.96229,0.23245 -3.85174,-0.58784 -5.18978,-2.25286 l -0.99074,-1.23274 h -11.72581 c 0,0 -3.51902,3.52308 -5.36686,5.37314 -1.84785,1.85005 -4.93085,5.54038 -4.93085,5.54038 l -0.006,13.07184 -6.48692,-0.0217 z m -26.6626,-11.38491 c 0.25952,-0.28793 0.56343,-0.8905 0.6753,-1.33895 0.16476,-0.65989 0.031,-0.98799 -0.70166,-1.72062 -1.06404,-1.06401 -1.77552,-1.13504 -2.856,-0.28508 -1.58154,1.24409 -0.59001,3.86832 1.46156,3.86832 0.52438,0 1.15995,-0.23427 1.4208,-0.52367 z m 62.1377,-0.25094 c 0.63991,-0.53841 0.92076,-1.04051 0.92076,-1.64583 0,-1.92417 -2.33425,-2.75336 -3.75404,-1.33348 -1.1299,1.1298 -0.84655,2.88729 0.55681,3.45264 1.02122,0.41144 1.29178,0.35517 2.27647,-0.47333 z M 87.21537,159.08715 c 0.41213,-0.38712 0.69252,-0.99871 0.69252,-1.50985 0,-1.08206 -1.20116,-2.32808 -2.24417,-2.32808 -0.8614,0 -2.24429,1.2023 -2.24429,1.9511 0,0.63568 0.57769,1.69834 1.171,2.15387 0.73478,0.56421 1.86217,0.44948 2.62494,-0.26714 z m 54.75977,-2.39395 c 0.44155,-0.41483 0.69215,-0.99363 0.69252,-1.59946 0,-1.98949 -2.4486,-2.78099 -3.78767,-1.22421 -0.86357,1.00385 -0.88331,1.66534 -0.0805,2.68587 0.78442,0.99725 2.19575,1.05844 3.17576,0.1378 z m -75.88825,-0.52323 c 0.4811,-0.48109 0.87463,-1.16472 0.87463,-1.51921 0,-0.83296 -1.5609,-2.39384 -2.39384,-2.39384 -0.35449,0 -1.03813,0.39352 -1.51922,0.87463 -0.4811,0.4811 -0.87464,1.16472 -0.87464,1.51921 0,0.35449 0.39354,1.03812 0.87464,1.51921 0.48109,0.481 1.16473,0.87466 1.51922,0.87466 0.35448,0 1.0381,-0.39366 1.51921,-0.87466 z m 47.66446,-17.101 c 0.55004,-0.4327 0.78841,-0.90192 0.78841,-1.55177 0,-2.11561 -2.59877,-3.14231 -3.86831,-1.52822 -0.84425,1.07329 -0.77964,1.79128 0.25449,2.82539 1.03401,1.03412 1.75212,1.09875 2.82541,0.2546 z m -55.21607,-3.27814 c 0.70581,-0.84457 0.88407,-1.6374 0.20624,-3.11159 -0.6367,-1.38472 -2.67328,-1.35019 -3.50859,-0.16789 -0.90279,1.2778 -0.50936,2.16736 0.002,3.0579 0.51678,1.06756 2.59454,1.06616 3.30035,0.22158 z m 57.30393,-17.0812 c 0.71136,-0.32413 1.39363,-1.39375 1.39363,-2.18491 0,-0.21693 -0.27903,-0.74928 -0.62016,-1.18277 -0.77713,-0.988 -2.37888,-1.08117 -3.26984,-0.19009 -0.89107,0.89106 -0.79802,2.49271 0.18997,3.26984 0.89942,0.70748 1.28108,0.75523 2.3064,0.28793 z m 26.09403,-0.40221 c 2.07292,-2.07292 -0.92417,-5.11123 -3.06149,-3.10338 -0.41203,0.387 -0.69255,0.99861 -0.69255,1.50973 0,1.08207 1.20116,2.32808 2.2443,2.32808 0.4264,0 1.10583,-0.33051 1.50974,-0.73443 z m -60.51686,-0.47025 c 1.03138,-0.81138 1.22924,-1.57766 0.68101,-2.63794 -0.90843,-1.75667 -3.1558,-1.73647 -4.00565,0.0362 -0.48819,1.01814 0.008,2.24943 1.13835,2.82084 1.01494,0.51328 1.2902,0.48578 2.18629,-0.21909 z m 47.83707,-14.85069 c 0.34592,-0.31305 0.54721,-0.91046 0.54721,-1.62402 0,-2.04346 -2.43016,-3.05966 -3.87106,-1.61876 -0.61583,0.61582 -0.54936,2.38815 0.11714,3.12475 0.68477,0.75647 2.43026,0.82085 3.20671,0.11803 z m -63.25618,4.49275 c 1.48223,-1.03825 1.2064,-4.36311 -1.57917,-4.02268 -1.52098,0.13387 -2.08211,1.0737 -2.1052,2.32253 0,1.74788 2.18478,2.75046 3.68437,1.70015 z M 85.92709,91.96735 c 0.41215,-0.38704 0.69253,-0.99864 0.69253,-1.50976 0,-1.08208 -1.20114,-2.32809 -2.24415,-2.32809 -0.42643,0 -1.10582,0.33052 -1.50987,0.73443 -2.07292,2.07294 0.92428,5.11125 3.06149,3.10342 z m 25.47251,3.2155 c 1.65352,-1.65037 0.37161,-3.87835 -1.49182,-3.87835 -1.41772,0 -2.22796,1.12409 -2.04918,2.84276 0.1652,1.58771 2.31465,2.03808 3.541,1.03549 3e-5,-2e-5 0,1e-4 0,1e-4 z"
       id="path4437"
       style="stroke-width:0.114166;fill:#ffffff;fill-opacity:1"
       sodipodi:nodetypes="cscsssscscssscsssscssscscsssccssscssccsssassscsssccccssscccssscssssccssscccssssscssccsscscccsscccsscsscccsccccssssscssscssssscccccsssccccssscsssssccccsssccsssscczccccssssssssssssssssssscssssssssssssssssszssczscssssssssssssssssscssscsssscsssssss" />
    <path
       style="color:#000000;fill:#ffffff;stroke-linejoin:round;-inkscape-stroke:none;fill-opacity:1"
       d="m 98.769531,77.650391 c -35.660299,0 -64.632812,28.972509 -64.632812,64.632809 0,35.6603 28.972513,64.63282 64.632812,64.63282 35.660299,0 64.632809,-28.97252 64.632809,-64.63282 0,-35.6603 -28.97251,-64.632809 -64.632809,-64.632809 z m 0,6 c 32.417659,0 58.632809,26.215149 58.632809,58.632809 0,32.41766 -26.21515,58.63282 -58.632809,58.63282 -32.417661,0 -58.632812,-26.21516 -58.632812,-58.63282 0,-32.41766 26.215151,-58.632809 58.632812,-58.632809 z"
       id="circle4439" />
  </g>
</svg>
