<?xml version="1.0" encoding="UTF-8" standalone="no"?>
<!-- Created with Inkscape (http://www.inkscape.org/) -->

<svg
   width="129.26564mm"
   height="129.16628mm"
   viewBox="0 0 129.26564 129.16628"
   version="1.1"
   id="svg1450"
   inkscape:version="1.2.1 (9c6d41e410, 2022-07-14)"
   sodipodi:docname="crisb_logo_n.svg"
   xmlns:inkscape="http://www.inkscape.org/namespaces/inkscape"
   xmlns:sodipodi="http://sodipodi.sourceforge.net/DTD/sodipodi-0.dtd"
   xmlns="http://www.w3.org/2000/svg"
   xmlns:svg="http://www.w3.org/2000/svg">
  <sodipodi:namedview
     id="namedview1452"
     pagecolor="#ffffff"
     bordercolor="#666666"
     borderopacity="1.0"
     inkscape:showpageshadow="2"
     inkscape:pageopacity="0.0"
     inkscape:pagecheckerboard="0"
     inkscape:deskcolor="#d1d1d1"
     inkscape:document-units="mm"
     showgrid="false"
     inkscape:zoom="0.76613356"
     inkscape:cx="74.39956"
     inkscape:cy="361.55576"
     inkscape:window-width="1920"
     inkscape:window-height="1015"
     inkscape:window-x="0"
     inkscape:window-y="0"
     inkscape:window-maximized="1"
     inkscape:current-layer="layer1" />
  <defs
     id="defs1447" />
  <g
     inkscape:label="Layer 1"
     inkscape:groupmode="layer"
     id="layer1"
     transform="translate(-62.45555,-52.83546)">
    <path
       id="path1162"
       style="stroke-width:9.47607;stroke-linejoin:round;stop-color:#000000;fill:#ffffff;fill-opacity:1"
       d="m 127.0883,52.83548 c -35.69562,1.4e-4 -64.63261,28.93713 -64.63275,64.63275 0.0207,34.39028 26.96767,62.74196 61.31254,64.50872 l 5.2e-4,-13.63689 c 0,0 -2.38038,-2.828 -5.56142,-6.01255 l -5.78363,-5.79035 h -6.41149 c -3.52626,0 -6.4115,0.12544 -6.4115,0.27854 0,0.15312 -0.54448,0.83946 -1.21026,1.52549 -2.17447,2.24064 -5.44562,2.52289 -8.01708,0.69194 -1.70747,-1.21587 -2.67925,-4.02355 -2.12338,-6.13502 1.30395,-4.95191 7.46638,-6.16302 10.68462,-2.09962 l 1.03611,1.30845 h 3.63595 c 2.75232,0 3.61061,-0.0965 3.53312,-0.39584 -0.0562,-0.21755 -3.1887,-3.4395 -6.96133,-7.15977 l -6.85953,-6.76393 -1.43041,0.21446 c -6.49178,0.97349 -9.79319,-7.2038 -4.40024,-10.89908 2.54308,-1.74261 6.5297,-0.93045 8.25686,1.68207 0.72682,1.09943 0.84956,2.60788 0.84956,3.59771 v 2.31356 l 6.80113,6.80682 c 3.74048,3.74353 6.97989,6.8063 7.19905,6.8063 0.29655,0 0.39842,-0.9119 0.39842,-3.57187 v -3.5724 l -1.37666,-1.15083 c -2.44059,-2.04009 -3.06999,-4.72023 -1.74925,-7.44813 1.14962,-2.37516 3.90364,-3.64322 6.75205,-3.10885 2.25912,0.4238 4.57875,3.38091 4.59455,5.85701 0.009,1.5499 -1.10446,3.64268 -2.5492,4.78679 l -1.24127,0.98288 v 12.45557 l 4.36666,4.35839 c 2.40144,2.39699 4.46667,4.25787 4.58887,4.13567 0.12202,-0.12204 0.22221,-7.12923 0.22221,-15.57115 v -15.34893 l -4.35168,-4.40852 c -2.39324,-2.4244 -6.58527,-6.52953 -9.31622,-9.12295 l -4.96559,-4.71548 H 88.92164 l -1.52187,1.57097 c -1.73169,1.78719 -2.65125,2.22622 -4.66018,2.22622 -1.88135,0 -3.24638,-0.61123 -4.4664,-2.00092 -0.87137,-0.99244 -1.35757,-2.57453 -1.3441,-3.97236 0.0127,-1.32287 0.47273,-2.74181 1.3441,-3.73414 1.22935,-1.4002 2.58656,-2.00143 4.51859,-2.00143 1.94471,0 3.40154,0.73661 4.77749,2.41587 l 1.13171,1.38183 h 8.86251 c 2.12413,0 3.3447,-0.12757 3.49126,-0.36483 0.13776,-0.22288 -2.19314,-2.75935 -5.99395,-6.5226 l -6.21926,-6.15777 -0.004,-3.49022 c -0.002,-3.76616 -0.18698,-5.59968 -0.20154,-5.69165 -0.25943,-0.10575 -0.73429,-0.46609 -1.3038,-0.86403 -1.43737,-1.00395 -2.28758,-2.8082 -2.28565,-4.85035 0.004,-4.73759 5.23706,-7.46667 9.24854,-4.82399 3.24261,2.13608 3.28304,7.65729 0.0713,9.71827 -0.60865,0.39047 -1.27951,0.81132 -1.27951,0.81132 0,0 -0.12836,1.97661 -0.0729,4.95267 l 0.10077,2.0531 5.85442,5.67873 c 3.21995,3.12323 5.96099,5.61595 6.09162,5.53919 0.13041,-0.0766 0.23719,-1.73844 0.23719,-3.69279 v -3.55328 l -1.45882,-1.21956 c -2.37514,-1.98539 -2.9907,-4.64589 -1.69447,-7.32358 2.33722,-4.82804 9.65909,-4.03224 11.09079,1.20561 0.64112,2.34542 -0.51668,5.25681 -2.57297,6.47144 l -0.93379,0.5519 v 12.67468 l 7.03833,7.04401 c 3.87119,3.87394 7.21773,7.0435 7.43675,7.0435 0.31607,0 0.39791,-4.48492 0.39791,-21.75319 v -21.7532 l -4.32893,-4.16977 -6.00842,-5.84822 -2.07894,0.0527 c -1.73719,0.0438 -2.31348,-0.0858 -3.50625,-0.78703 -3.71969,-2.18681 -3.85561,-7.61324 -0.25063,-9.99887 1.76769,-1.16996 4.57479,-1.2292 6.34018,-0.13436 2.23921,1.38871 3.31859,3.8038 2.77709,6.21409 l -0.28267,1.2578 5.52111,5.56504 c 2.11689,2.13388 3.99442,3.88658 4.18011,3.88658 0.18557,0 2.02698,-1.69382 4.09174,-3.76411 l 2.07532,-2.08514 -0.22014,-1.46813 c -0.54351,-3.62575 2.32364,-7.12928 5.83479,-7.12928 1.41974,0 3.40396,0.92058 4.48913,2.08256 3.81457,4.08393 0.0391,10.59983 -5.64772,9.74669 l -1.44074,-0.21601 -2.55953,2.55075 -4.2385,4.22972 v 30.93764 c 0,17.01585 0.11289,30.93817 0.25063,30.93817 0.13789,0 2.41621,-2.18197 5.06326,-4.8488 l 4.81262,-4.84932 v -12.63644 l -1.45882,-1.21956 c -1.68826,-1.41117 -2.33836,-2.73716 -2.33836,-4.7687 0,-1.91754 0.60569,-3.27191 2.01796,-4.51187 2.09817,-1.84247 5.56063,-1.85464 7.64191,-0.0274 3.00875,2.64172 2.94293,6.37491 -0.16226,9.19169 l -1.58647,1.43919 0.004,3.59978 c 0.002,1.97984 0.1401,3.81304 0.30541,4.07417 0.23989,0.37867 1.42329,-0.64744 5.84977,-5.07308 l 5.54901,-5.54798 v -10.39782 l -4.35167,-4.33978 -4.35115,-4.33979 -1.48312,0.17312 c -2.14549,0.25028 -3.5983,-0.11734 -4.86895,-1.233 -2.70643,-2.37621 -2.98089,-5.75482 -0.68058,-8.37469 2.51071,-2.85964 6.96149,-2.65905 9.30899,0.41962 0.79348,1.04073 0.89048,1.43005 0.90641,3.64112 l 0.0181,2.47582 2.30064,2.53628 c 1.26554,1.39471 2.43253,2.45467 2.59312,2.35541 0.16685,-0.103 0.29197,-3.97347 0.29197,-9.04079 V 82.1329 l -1.40094,-1.27434 c -2.3085,-2.10082 -2.93944,-4.58322 -1.80196,-7.08743 0.92266,-2.03139 3.30246,-3.62303 5.41776,-3.62303 2.11532,0 4.49497,1.59164 5.41775,3.62303 1.11756,2.46024 0.43011,5.22997 -1.74253,7.02076 l -1.1529,0.95085 0.0837,9.31158 0.0837,9.31209 2.60346,-2.5461 2.60346,-2.5461 -0.19482,-1.64486 c -0.61382,-5.18276 4.9269,-8.80138 9.13433,-5.96604 5.3299,3.59183 2.14198,11.67253 -4.26951,10.82208 l -1.60352,-0.21291 -4.21576,4.20698 -4.21577,4.20698 v 11.99616 l -5.85442,5.8844 c -3.21994,3.23625 -5.85442,6.0572 -5.85442,6.26887 0,0.29277 2.03102,0.38499 8.47752,0.38499 h 8.477 l 1.21956,-1.45935 c 1.41168,-1.68874 2.73725,-2.33835 4.77129,-2.33835 2.4867,0 4.99963,1.80456 5.69629,4.0907 1.53155,5.0256 -3.77039,9.49664 -8.43566,7.11378 -0.46123,-0.23543 -1.32925,-1.00147 -1.92908,-1.70222 l -1.09089,-1.27434 h -22.42654 l -6.87348,6.89932 -6.87348,6.89932 v 6.21512 c 0,4.2154 0.11344,6.28478 0.35191,6.43217 0.20439,0.1263 2.42484,-1.85341 5.30407,-4.72839 l 4.95267,-4.94544 h 14.28543 l 1.04542,-1.30018 c 2.87188,-3.57357 8.21809,-3.13741 10.13736,0.82734 1.82272,3.76531 -0.52232,8.10124 -4.64622,8.58966 -2.07522,0.24582 -4.07351,-0.62196 -5.48856,-2.3828 l -1.048,-1.3038 h -12.40079 c 0,0 -3.72142,3.72582 -5.67562,5.68234 -1.95418,1.95653 -5.21467,5.85959 -5.21467,5.85959 l -0.006,13.60641 c 34.2679,-1.87975 61.09162,-30.21412 61.09292,-64.53353 -1.4e-4,-35.69583 -28.93744,-64.6329 -64.63327,-64.63275 z m -15.40061,9.30124 c -0.45097,0 -1.16949,0.35005 -1.5968,0.77722 -2.19221,2.19222 0.97784,5.40536 3.23805,3.28197 0.43587,-0.40928 0.73225,-1.05628 0.73225,-1.59681 0,-1.14433 -1.27047,-2.46238 -2.3735,-2.46238 z m 27.00197,3.35794 c -1.49933,0 -2.35639,1.18896 -2.16731,3.00653 0.1747,1.6791 2.44808,2.15529 3.74499,1.09503 1.74868,-1.74536 0.39297,-4.10156 -1.57768,-4.10156 z m 18.56838,8.21138 c -0.57018,0.0148 -1.14851,0.23746 -1.62471,0.71365 -0.65126,0.65125 -0.58085,2.52572 0.12402,3.30471 0.72415,0.80001 2.5704,0.86781 3.39153,0.12454 0.36584,-0.33107 0.57826,-0.96259 0.57826,-1.71721 0,-1.48573 -1.21472,-2.4583 -2.4691,-2.42569 z M 91.10342,78.3223 c -0.16358,-0.006 -0.3373,0.001 -0.52142,0.0238 -1.60851,0.14158 -2.20181,1.13545 -2.22622,2.45618 0,1.84846 2.3105,2.90859 3.89641,1.79782 1.46954,-1.02936 1.30488,-4.1841 -1.14877,-4.27777 z m 16.03416,11.06185 c -0.82661,0.007 -1.64557,0.48122 -2.09496,1.41852 -0.51629,1.07674 0.008,2.37899 1.20354,2.98328 1.07336,0.54283 1.36486,0.51392 2.31252,-0.23151 1.09074,-0.85807 1.29963,-1.66871 0.71986,-2.79001 -0.48037,-0.92888 -1.31435,-1.38772 -2.14096,-1.38028 z m 36.71714,0.68317 c -0.56401,0.0217 -1.11998,0.2347 -1.53221,0.64699 -0.94235,0.94231 -0.84433,2.63631 0.20051,3.45818 0.95118,0.7482 1.35481,0.79856 2.43913,0.30438 0.75232,-0.34279 1.47381,-1.47378 1.47381,-2.31046 0,-0.22943 -0.29501,-0.79264 -0.65578,-1.25108 -0.46229,-0.58773 -1.2003,-0.87596 -1.92546,-0.84801 z m 27.01386,0.008 c -0.51582,0.0203 -1.05379,0.22951 -1.54823,0.69401 -0.43574,0.40926 -0.73226,1.05628 -0.73226,1.5968 0,1.14437 1.27032,2.46187 2.3735,2.46187 0.45093,0 1.16966,-0.34952 1.59681,-0.7767 1.71266,-1.71267 0.15239,-4.04854 -1.68982,-3.97598 z m -88.06646,18.06814 c -0.73304,-0.0176 -1.49256,0.30397 -1.93425,0.92915 -0.95474,1.35134 -0.5386,2.2921 0.002,3.23391 0.54652,1.12899 2.74383,1.12779 3.49023,0.23461 h 5.2e-4 c 0.74644,-0.89319 0.9349,-1.73172 0.21807,-3.29076 -0.33667,-0.7322 -1.04359,-1.08927 -1.77663,-1.10691 z m 58.23882,3.77497 c -0.56735,0.038 -1.12401,0.29856 -1.54358,0.83199 -0.89284,1.13507 -0.82443,1.8943 0.26924,2.98793 1.0935,1.09363 1.85286,1.16197 2.98793,0.26923 0.58168,-0.45761 0.83354,-0.95347 0.83354,-1.64072 0,-1.53819 -1.29896,-2.53215 -2.54713,-2.44843 z M 90.73548,129.7623 c -0.0775,-0.002 -0.15463,10e-4 -0.23151,0.0124 -1.05571,0.32956 -2.12991,0.74748 -2.29547,2.71146 0.3043,1.49911 1.45664,2.30035 2.66703,2.3487 1.05567,-0.3296 2.16755,-1.5362 2.21588,-2.74661 0,-0.82582 -1.1932,-2.29128 -2.35593,-2.32595 z m 80.48346,1.02939 c -0.66263,-0.0169 -1.35875,0.2513 -1.88981,0.86868 -0.91327,1.06164 -0.93431,1.76086 -0.0853,2.84014 0.82949,1.05452 2.32202,1.11908 3.35845,0.14573 0.46696,-0.43869 0.73237,-1.05068 0.73277,-1.69137 0,-1.31499 -1.01176,-2.13497 -2.11615,-2.16318 z m -58.16854,2.32751 c -2.52962,0.60663 -2.55353,2.56365 -1.58388,3.9088 0.77707,0.59667 2.41795,0.90773 3.22461,0.14987 0.43585,-0.40941 0.79633,-1.46293 0.79633,-2.0035 0,-1.14433 -1.33403,-2.05517 -2.43706,-2.05517 z m 47.15474,19.01383 c -0.65387,-0.0415 -1.3531,0.18724 -1.91616,0.75034 -1.19494,1.19483 -0.89552,3.05357 0.5886,3.65145 1.08001,0.43513 1.36622,0.37543 2.4076,-0.50074 0.67673,-0.56939 0.9741,-1.1003 0.9741,-1.74046 0,-1.27183 -0.96434,-2.09144 -2.05414,-2.16059 z m -66.21921,0.0124 c -0.47958,0.0155 -0.96305,0.22375 -1.46296,0.61701 -1.67255,1.31569 -0.62348,4.09123 1.54616,4.09123 0.55456,0 1.22635,-0.24791 1.50223,-0.55397 0.92317,-0.6935 0.89213,-2.39336 0.27492,-3.2427 -0.63297,-0.63295 -1.24375,-0.93151 -1.86035,-0.91157 z"
       sodipodi:nodetypes="ccccccsssscscssccsssscssscscscsccssscsscccsssssccssscccccsscccssscsssccccssccccssssccsccsscscccsscccsscssccssccccsssscccssccsssccccccssccccccssccssssccccssscccsssccscccscsssssscssscssssscssssssssssssssssssssssssccssssscsssccscssssscsccssssssscssssccssccc" />
  </g>
</svg>
