<?xml version="1.0" encoding="UTF-8" standalone="no"?>
<svg
   width="1792.0002"
   height="1452.6572"
   viewBox="0 0 1792.0002 1452.6572"
   version="1.1"
   id="svg1905"
   sodipodi:docname="gimp.svg"
   inkscape:version="1.2.1 (9c6d41e410, 2022-07-14)"
   xmlns:inkscape="http://www.inkscape.org/namespaces/inkscape"
   xmlns:sodipodi="http://sodipodi.sourceforge.net/DTD/sodipodi-0.dtd"
   xmlns="http://www.w3.org/2000/svg"
   xmlns:svg="http://www.w3.org/2000/svg">
  <defs
     id="defs1909" />
  <sodipodi:namedview
     id="namedview1907"
     pagecolor="#ffffff"
     bordercolor="#666666"
     borderopacity="1.0"
     inkscape:showpageshadow="2"
     inkscape:pageopacity="0.0"
     inkscape:pagecheckerboard="0"
     inkscape:deskcolor="#d1d1d1"
     showgrid="false"
     inkscape:zoom="0.47991071"
     inkscape:cx="769.93488"
     inkscape:cy="812.65116"
     inkscape:window-width="1920"
     inkscape:window-height="1015"
     inkscape:window-x="0"
     inkscape:window-y="0"
     inkscape:window-maximized="1"
     inkscape:current-layer="svg1905" />
  <path
     d="m 1760.2043,0 c -72.862,91.234 -192.99,489.766 -867.32896,507.512 -321.783,8.398 -481.266,-357.967 -481.266,-357.967 l -25.113,588.249 c 6.504,8.15 12.996,16.36 19.012,25.113 48.475,70.486 73.13,148.992 73.637,219.777 0.508,70.777 -23.462,134.55 -73.637,172.53 -23.087,17.47 -49.678,27.015 -77.752,30.786 C 784.31434,1549.764 2003.5903,1827.467 1760.2043,0 Z M 611.94734,515.322 c 97.17,0 176.928,85.843 176.928,193.523 0,8.31 -1.207,16.243 -2.128,24.263 a 126.8,133.076 0 0 0 -123.722,-104.141 126.8,133.076 0 0 0 -126.843,133.084 126.8,133.076 0 0 0 122.161,132.806 c -14.896,4.43 -30.252,7.657 -46.396,7.657 -97.169,0 -176.785,-85.99 -176.785,-193.67 0,-107.68 79.616,-193.522 176.785,-193.522 z m 419.26396,9.647 c 119.235,0 216.23,101.324 216.23,227.433 0,1.09 -0.27,2.18 -0.284,3.27 a 162.352,170.38 0 0 0 -159.902,-141.17 162.352,170.38 0 0 0 -162.31496,170.255 162.352,170.38 0 0 0 162.31396,170.546 162.352,170.38 0 0 0 65.692,-14.754 c -34.693,24.88 -76.633,39.439 -121.736,39.439 -119.23496,0 -216.22996,-101.47 -216.22896,-227.58 0,-126.11 96.994,-227.433 216.22996,-227.433 z M 157.64034,630.382 c -35.96,-1.162 -67.816997,8.522 -93.642997,28.1 -42.643,32.31 -64.45700024,87.765 -63.99000024,152.943 0.468,65.176 23.55200024,139.338 69.38100024,206.018 45.842997,66.694 105.559997,113.027 164.015997,133.934 58.456,20.906 114.676,16.83 157.348,-15.466 42.683,-32.305 64.6,-87.885 64.131,-153.09 -0.468,-65.205 -23.652,-139.31 -69.522,-206.011 -60.71,-88.284 -149.183,-143.96 -227.722,-146.43 z m 884.63996,18.445 a 76.13,79.894 0 0 1 76.048,80.024 76.13,79.894 0 0 1 -76.05,79.88 76.13,79.894 0 0 1 -76.04796,-79.88 76.13,79.894 0 0 1 76.04996,-80.024 z m -427.06996,16.606 a 50.127,52.607 0 0 1 50.084,52.638 50.127,52.607 0 0 1 -50.084,52.638 50.127,52.607 0 0 1 -50.085,-52.638 50.127,52.607 0 0 1 50.085,-52.638 z m -485.38,16.884 a 84.587,106.525 0 0 1 84.562,106.554 84.587,106.525 0 0 1 -84.562,106.409 A 84.587,106.525 0 0 1 45.268343,788.87 84.587,106.525 0 0 1 129.83034,682.317 Z M 1202.4633,984.951 c 0,0 112.447,32.843 152.1,86.548 39.536,53.568 14.745,86.548 4.397,155.08 -15.318,-40.026 -30.793,-71.176 -46.963,-89.388 -61.312,95.236 -234.789,140.544 -467.50396,117.909 104.368,-5.45 185.40296,-21.7 249.71396,-44.132 -105.93696,6.902 -243.14596,-20.703 -405.92596,-81.012 322.46596,67.675 486.74596,4.94 582.85396,-72.927 -25.377,-34.397 -68.672,-72.078 -68.672,-72.078 z"
     fill-rule="evenodd"
     id="path1903"
     style="fill:#ffffff" />
</svg>
