<?xml version="1.0" encoding="UTF-8" standalone="no"?>
<svg
   width="1535.9999"
   height="1515.7997"
   viewBox="0 0 1535.9999 1515.7997"
   version="1.1"
   id="svg2163"
   sodipodi:docname="inkscape.svg"
   inkscape:version="1.2.1 (9c6d41e410, 2022-07-14)"
   xmlns:inkscape="http://www.inkscape.org/namespaces/inkscape"
   xmlns:sodipodi="http://sodipodi.sourceforge.net/DTD/sodipodi-0.dtd"
   xmlns="http://www.w3.org/2000/svg"
   xmlns:svg="http://www.w3.org/2000/svg">
  <defs
     id="defs2167" />
  <sodipodi:namedview
     id="namedview2165"
     pagecolor="#ffffff"
     bordercolor="#666666"
     borderopacity="1.0"
     inkscape:showpageshadow="2"
     inkscape:pageopacity="0.0"
     inkscape:pagecheckerboard="0"
     inkscape:deskcolor="#d1d1d1"
     showgrid="false"
     inkscape:zoom="0.47991071"
     inkscape:cx="769.93488"
     inkscape:cy="591.77674"
     inkscape:window-width="1920"
     inkscape:window-height="1015"
     inkscape:window-x="0"
     inkscape:window-y="0"
     inkscape:window-maximized="1"
     inkscape:current-layer="svg2163" />
  <path
     d="M 754.93289,3.8202006e-4 C 707.43789,-0.09361798 660.40489,17.159382 626.32289,52.043382 L 59.304893,632.26738 c -191.581003,237.25 130.378997,209.652 268.397997,277.986 49.51,50.607 -189.768,87.96 -140.258,138.61002 49.51,50.607 299.378,97.499 348.972,148.106 49.51,50.607 -101.338,104.292 -51.828,154.899 49.51,50.607 164.017,2.661 185.458,119.492 15.28,83.487 206.359,35.88 299.807,-32.497 49.51001,-50.649 -94.718,-45.885 -45.209,-96.492 123.12001,-125.906 237.75901,-45.747 279.88201,-171.906 20.809,-62.34 -181.237,-96.114 -131.643,-146.72 142.45,-83.19202 634.799,-137.34002 401.179,-370.95902 L 886.32089,52.043382 c -35.94,-34.505 -83.894,-51.94699998 -131.388,-52.04199998 z M 760.01889,55.217382 c 33.909,0.18 67.7,12.868 92.032,37.517 L 1076.3869,320.56538 c 21.273,21.737 20.97,63.86 9.068,75.974 l -111.38001,-89.098 -21.912,131.94 -93.063,-49.131 -149.038,94.168 -49.338,-198.5 -80.071,138.527 h -122.403 c -49.89,0 -55.75,-63.313 -10.42,-108.644 79.182,-85.47 170.048,-172.585 219.43,-223.065998 24.819,-25.367 58.85,-37.696 92.759,-37.517 z m -269.396,886.435998 c 15.153,9.413 244.341,55.972 300.351,65.25702 19.416,4.094 5.656,24.102 -21.104,37.608 -60.357,16.04 -353.11,-102.86502 -279.247,-102.86502 z m 899.76601,159.45002 c -48.945,-1.237 -99.438,22.431 -112.757,69.362 0,28.786 212.094,47.647 212.094,-6.8 -14.166,-40.995 -56.15,-61.47 -99.337,-62.562 z m -981.05701,124.702 c -66.47,-0.616 -144.456,47.953 -87.12,97.614 50.228,43.432 127.81,-10.805 151.066,-71.415 -13.687,-18.187 -37.936,-25.957 -63.946,-26.199 z m 841.70601,3.792 c -64.747,58.078 7.26,117 71.077,79.478 14.224,-14.435 -0.379,-65.043 -71.077,-79.478 z"
     id="path2161"
     style="fill:#ffffff" />
</svg>
