<?xml version="1.0" encoding="UTF-8" standalone="no"?>
<svg
   fill="#000000"
   viewBox="0 0 39.477139 39"
   width="39.477139"
   height="39"
   version="1.1"
   id="svg2034"
   sodipodi:docname="logokrita.svg"
   inkscape:version="1.2.1 (9c6d41e410, 2022-07-14)"
   xmlns:inkscape="http://www.inkscape.org/namespaces/inkscape"
   xmlns:sodipodi="http://sodipodi.sourceforge.net/DTD/sodipodi-0.dtd"
   xmlns="http://www.w3.org/2000/svg"
   xmlns:svg="http://www.w3.org/2000/svg">
  <defs
     id="defs2038" />
  <sodipodi:namedview
     id="namedview2036"
     pagecolor="#ffffff"
     bordercolor="#666666"
     borderopacity="1.0"
     inkscape:showpageshadow="2"
     inkscape:pageopacity="0.0"
     inkscape:pagecheckerboard="0"
     inkscape:deskcolor="#d1d1d1"
     showgrid="false"
     inkscape:zoom="17.2"
     inkscape:cx="12.732558"
     inkscape:cy="19.011628"
     inkscape:window-width="1920"
     inkscape:window-height="1015"
     inkscape:window-x="0"
     inkscape:window-y="0"
     inkscape:window-maximized="1"
     inkscape:current-layer="svg2034" />
  <path
     d="m 19.977139,0 c -3.542,0 -6.930734,0.9465156 -9.927734,2.7285156 l 6.976562,3.7460934 c 3.138,1.685 5.359516,4.568329 6.228516,7.986329 l 0.30664,0.460937 3.376954,5.064453 0.6875,1.033203 c 1.843,0.074 3.242265,1.420281 3.822265,3.738281 0.822,3.287 -1.171547,5.780532 -3.310547,7.019532 -1.455,0.952 -4.735156,1.722656 -7.660156,1.722656 -4.713,0 -9.243266,-1.847312 -11.8222655,-4.820312 -1.802,-2.078001 -2.552875,-4.585001 -2.171875,-7.25 0.003,-0.022 0.01453,-0.03955 0.01953,-0.06055 0.009,-0.034 0.02016,-0.0657 0.03516,-0.0957 0.014,-0.026 0.02988,-0.04827 0.04687,-0.07227 0.022,-0.029 0.04427,-0.05412 0.07227,-0.07813 0.02,-0.017 0.04245,-0.02997 0.06445,-0.04297 0.032,-0.02 0.06456,-0.03683 0.101562,-0.04883 0.027,-0.009 0.05499,-0.01258 0.08399,-0.01758 C 6.9318265,21.010672 6.9521395,21 6.9771395,21 c 0.013,0 0.02216,0.0068 0.03516,0.0078 0.012,0.001 0.02316,-0.004 0.03516,-0.002 0.022,0.003 0.0415,0.01548 0.0625,0.02148 0.033,0.009 0.06375,0.0182 0.09375,0.0332 0.029,0.015 0.05313,0.03273 0.07813,0.05273 0.025,0.02 0.04931,0.03945 0.07031,0.06445 0.021,0.024 0.03673,0.05012 0.05273,0.07813 0.016,0.027 0.03102,0.05398 0.04102,0.08398 0.011,0.032 0.01553,0.06561 0.01953,0.09961 9.91e-4,0.02007 0.01171,0.03862 0.01171,0.06062 0,1.401 0.422063,2.476203 1.289062,3.283203 1.5709995,1.463 4.6537815,2.04675 9.1757815,1.71875 2.289,-0.163 4.109109,-0.577859 5.537109,-1.255859 -0.001,-0.026 0,-0.07337 0,-0.109375 l -1.023437,-0.683594 -4.492188,-2.992187 -0.175781,-0.01563 C 14.064686,21.134313 10.693639,19.20725 8.5396395,16.15625 L 3.516202,9.041016 C 1.523202,12.163016 0.47713948,15.748 0.47713948,19.5 c 0,10.752 8.74800002,19.5 19.49999952,19.5 10.752,0 19.5,-8.748 19.5,-19.5 0,-10.752 -8.748,-19.5 -19.5,-19.5 z M 0.39510828,0.00781 c -0.107875,0.017875 -0.2091094,0.07075 -0.2871094,0.15625 -0.115,0.127 -0.1268906,0.294125 -0.087891,0.453125 L 10.172451,15.001953 c 1.597001,2.263 3.993594,3.777109 6.683594,4.287109 l 0.002,-0.0098 c 0.068,-1.238 0.513907,-2.416359 1.253907,-3.318359 0.743,-0.906 1.761265,-1.529735 2.947265,-1.802735 l 0.02539,-0.0059 c -0.856,-2.522 -2.613906,-4.632016 -5.003906,-5.916016 L 0.71737388,0.0625 c -0.1015,-0.055 -0.2143907,-0.0725625 -0.3222656,-0.0546875 z M 21.863858,16.03125 21.52792,16.10938 c -0.762,0.175 -1.385562,0.551141 -1.851562,1.119141 -0.475,0.578 -0.759688,1.346109 -0.804688,2.162109 l -0.01563,0.285156 4.673828,3.113281 c 0.404,-0.707 0.996985,-1.288406 1.708985,-1.691406 z m 5.580078,6.472656 c -0.074,0 -0.14861,0.0028 -0.224609,0.0098 -1.030001,0.102 -1.944829,0.894719 -2.173829,1.886719 -0.234,1.017 0.104719,2.014515 0.886719,2.603515 0.951,0.716 1.07536,1.772547 1.06836,2.810547 l -0.0059,0.955078 0.789063,-0.539062 c 0.895,-0.612 2.900984,-2.335422 2.208984,-5.107422 -0.423,-1.699 -1.327828,-2.619141 -2.548828,-2.619141 z"
     id="path2032"
     style="fill:#ff3860;fill-opacity:1" />
</svg>
