<?xml version="1.0" encoding="UTF-8" standalone="no"?>
<svg
   height="550"
   overflow="scroll"
   width="1200"
   version="1.1"
   id="svg5"
   sodipodi:docname="logolatex.svg"
   inkscape:version="1.4 (e7c3feb100, 2024-10-09)"
   xmlns:inkscape="http://www.inkscape.org/namespaces/inkscape"
   xmlns:sodipodi="http://sodipodi.sourceforge.net/DTD/sodipodi-0.dtd"
   xmlns="http://www.w3.org/2000/svg"
   xmlns:svg="http://www.w3.org/2000/svg">
  <defs
     id="defs5" />
  <sodipodi:namedview
     id="namedview5"
     pagecolor="#ffffff"
     bordercolor="#666666"
     borderopacity="1.0"
     inkscape:showpageshadow="2"
     inkscape:pageopacity="0.0"
     inkscape:pagecheckerboard="0"
     inkscape:deskcolor="#d1d1d1"
     inkscape:zoom="0.76916667"
     inkscape:cx="600.65005"
     inkscape:cy="250.27085"
     inkscape:window-width="1920"
     inkscape:window-height="1008"
     inkscape:window-x="0"
     inkscape:window-y="0"
     inkscape:window-maximized="1"
     inkscape:current-layer="svg5" />
  <g
     id="g1"
     transform="matrix(0.76820144,0,0,0.76820144,138.88708,84.908553)"
     style="fill:#000000;fill-opacity:1">
    <path
       d="m 264.80097,237.23009 h -11.99746 c -4.79899,49.63958 -11.51757,109.98572 -95.9797,109.98572 h -38.87177 c -22.55523,0 -23.51503,-3.40664 -23.51503,-19.4665 V 69.331529 c 0,-16.546526 0,-23.3598 45.11045,-23.3598 h 15.83666 V 31.371854 c -17.27634,1.459987 -60.46721,1.459987 -80.143048,1.459987 -18.716039,0 -56.14812,0 -72.464668,-1.459987 v 14.599875 h 11.037665 c 36.952182,0 37.911979,5.353287 37.911979,22.873137 V 324.34267 c 0,17.51985 -0.959797,22.87314 -37.911979,22.87314 H 2.776404 v 15.08654 H 251.84371 Z"
       id="path1"
       style="fill:#000000;fill-opacity:1;stroke-width:48.3268" />
    <path
       d="m 256.64269,30.885191 c -1.91959,-5.83995 -2.87939,-7.786599 -9.11807,-7.786599 -6.23868,0 -7.67837,1.946649 -9.59797,7.786599 L 160.663,229.44349 c -3.35929,8.27326 -9.11807,23.3598 -38.87177,23.3598 v 12.16656 h 74.38426 v -12.16656 c -14.87685,0 -23.99493,-6.81328 -23.99493,-16.54652 0,-2.43332 0.4799,-3.40665 1.4397,-6.81328 0,0 16.31655,-41.85298 16.31655,-41.85298 h 95.0199 l 19.19594,49.63958 c 0.9598,1.94665 1.91959,4.37996 1.91959,5.83994 0,9.73326 -18.23614,9.73326 -27.35421,9.73326 v 12.16656 h 94.54 v -12.16656 h -6.71858 c -22.55523,0 -24.95473,-3.40664 -28.31402,-13.13989 0,0 -81.58274,-208.778209 -81.58274,-208.778209 z m -19.19594,34.553037 42.71097,109.985722 h -85.42193 z"
       id="path2"
       style="fill:#000000;fill-opacity:1;stroke-width:48.3268" />
    <path
       d="M 641.04137,34.291829 H 348.7832 c 0,0 -8.63817,109.012401 -8.63817,109.012401 h 11.51756 c 6.71858,-78.352665 13.91706,-94.412527 86.38173,-94.412527 8.63817,0 21.11553,0 25.91452,0.973326 10.07787,1.94665 10.07787,7.299937 10.07787,18.493174 V 323.85601 c 0,16.54653 0,23.3598 -50.38935,23.3598 h -19.19594 v 15.08654 c 19.67584,-1.45999 68.14559,-1.45999 90.22091,-1.45999 22.07534,0 71.50487,0 91.18071,1.45999 V 347.21581 H 566.6571 c -50.38933,0 -50.38933,-6.81327 -50.38933,-23.3598 V 68.358203 c 0,-9.73325 0,-16.546524 8.63817,-18.493174 5.27888,-0.973326 18.23615,-0.973326 27.35422,-0.973326 71.98477,0 79.18324,16.059862 85.90182,94.412527 h 11.99746 c 0,0 -9.11807,-109.012401 -9.11807,-109.012401 z"
       id="path3"
       style="fill:#000000;fill-opacity:1;stroke-width:48.3268" />
    <path
       d="m 898.26696,346.72915 h -11.99747 c -11.99746,74.45936 -23.03513,109.98572 -105.09777,109.98572 h -63.34659 c -22.55523,0 -23.51503,-3.40664 -23.51503,-19.4665 V 307.79615 h 42.71096 c 46.55016,0 51.82904,15.5732 51.82904,56.93951 h 11.99746 V 236.25677 H 788.8501 c 0,41.36631 -5.27888,56.45284 -51.82904,56.45284 H 694.3101 V 176.39728 c 0,-16.05986 0.9598,-19.46651 23.51503,-19.46651 h 61.427 c 73.42447,0 85.90183,26.76644 93.5802,94.41252 H 884.8298 L 871.39264,142.33091 H 602.64949 v 14.59986 h 11.03767 c 36.95218,0 37.91197,5.35329 37.91197,22.87314 v 254.03782 c 0,17.51985 -0.95979,22.87314 -37.91197,22.87314 h -11.03767 v 15.08654 h 275.46173 z"
       id="path4"
       style="fill:#000000;fill-opacity:1;stroke-width:48.3268" />
    <path
       d="m 1042.7164,174.93728 65.7461,-97.33249 c 10.0778,-15.573199 26.3944,-31.146398 69.1054,-31.633061 V 31.371854 H 1063.352 v 14.599875 c 19.196,0.486663 29.7537,11.193237 29.7537,22.386474 0,4.866625 -0.9598,5.83995 -4.3191,11.193238 0,0 -54.7084,81.759299 -54.7084,81.759299 L 972.65122,67.871541 c -0.9598,-1.459988 -3.35929,-5.353287 -3.35929,-7.299938 0,-5.83995 10.55777,-14.113211 30.71347,-14.599874 V 31.371854 c -16.31652,1.459987 -51.34911,1.459987 -69.58525,1.459987 -14.87686,0 -44.63056,-0.486662 -62.3868,-1.459987 v 14.599875 h 9.11807 c 26.39441,0 35.51248,3.406637 44.63055,17.033187 0,0 87.82143,134.805504 87.82143,134.805504 l -78.22346,117.28567 c -6.71858,9.73324 -21.11553,32.11972 -69.10537,32.11972 v 15.08654 h 114.21584 v -15.08654 c -22.07534,-0.48666 -30.23361,-13.62655 -30.23361,-22.38648 0,-4.37995 1.43969,-6.32661 4.79898,-11.67989 l 67.66572,-101.71246 75.8239,115.82566 c 0.9599,1.94666 2.3995,3.89331 2.3995,5.3533 0,5.83995 -10.5577,14.11321 -31.1934,14.59987 v 15.08654 c 16.7965,-1.45999 51.829,-1.45999 69.5853,-1.45999 20.1557,0 42.2311,0.48666 62.3868,1.45999 v -15.08654 h -9.1181 c -24.9547,0 -35.0325,-2.43332 -45.1104,-17.51985 0,0 -100.7787,-154.75868 -100.7787,-154.75868 z"
       id="path5"
       style="fill:#000000;fill-opacity:1;stroke-width:48.3268" />
  </g>
</svg>
