<?xml version="1.0" encoding="UTF-8" standalone="no"?>
<svg
   width="336.21463"
   height="316.96518"
   version="1.1"
   viewBox="0 0 315.20122 297.13572"
   xml:space="preserve"
   id="svg107"
   sodipodi:docname="logogodot.svg"
   inkscape:version="1.2.1 (9c6d41e410, 2022-07-14)"
   xmlns:inkscape="http://www.inkscape.org/namespaces/inkscape"
   xmlns:sodipodi="http://sodipodi.sourceforge.net/DTD/sodipodi-0.dtd"
   xmlns="http://www.w3.org/2000/svg"
   xmlns:svg="http://www.w3.org/2000/svg"
   xmlns:rdf="http://www.w3.org/1999/02/22-rdf-syntax-ns#"
   xmlns:cc="http://creativecommons.org/ns#"
   xmlns:dc="http://purl.org/dc/elements/1.1/"><sodipodi:namedview
     id="namedview109"
     pagecolor="#ffffff"
     bordercolor="#666666"
     borderopacity="1.0"
     inkscape:showpageshadow="2"
     inkscape:pageopacity="0.0"
     inkscape:pagecheckerboard="0"
     inkscape:deskcolor="#d1d1d1"
     showgrid="false"
     inkscape:zoom="1.2910156"
     inkscape:cx="189.77307"
     inkscape:cy="166.53556"
     inkscape:window-width="1920"
     inkscape:window-height="1015"
     inkscape:window-x="0"
     inkscape:window-y="0"
     inkscape:window-maximized="1"
     inkscape:current-layer="svg107" /><title
     id="title2">Godot Game engine logo</title><desc
     id="desc4">A free and open source cross-platform game engine</desc><metadata
     id="metadata6"><rdf:RDF><cc:Work
         rdf:about=""><dc:format>image/svg+xml</dc:format><dc:type
           rdf:resource="http://purl.org/dc/dcmitype/StillImage" /><dc:title>Godot Game engine logo</dc:title></cc:Work></rdf:RDF></metadata><defs
     id="defs11"><clipPath
       clipPathUnits="userSpaceOnUse"
       id="clipPath535"><g
         id="g539"
         transform="matrix(0.70733866,0,0,-0.70733866,-525.46419,195.57913)"><path
           d="M -94.25,-146.625 H 958.125 V 597.5 H -94.25 Z"
           id="path537"
           style="stroke-width:1.25" /></g></clipPath><clipPath
       clipPathUnits="userSpaceOnUse"
       id="clipPath541"><g
         id="g545"
         transform="matrix(0.70733866,0,0,-0.70733866,-497.61273,193.54553)"><path
           d="M -94.25,-146.625 H 958.125 V 597.5 H -94.25 Z"
           id="path543"
           style="stroke-width:1.25" /></g></clipPath><clipPath
       clipPathUnits="userSpaceOnUse"
       id="clipPath547"><g
         id="g551"><path
           d="M -94.25,-146.625 H 958.125 V 597.5 H -94.25 Z"
           id="path549"
           style="stroke-width:1.25" /></g></clipPath><clipPath
       clipPathUnits="userSpaceOnUse"
       id="clipPath553"><g
         id="g557"
         transform="matrix(0.70733866,0,0,-0.70733866,-464.63307,208.39965)"><path
           d="M -94.25,-146.625 H 958.125 V 597.5 H -94.25 Z"
           id="path555"
           style="stroke-width:1.25" /></g></clipPath><clipPath
       clipPathUnits="userSpaceOnUse"
       id="clipPath559"><g
         id="g563"
         transform="matrix(0.70733866,0,0,-0.70733866,-442.52874,193.54553)"><path
           d="M -94.25,-146.625 H 958.125 V 597.5 H -94.25 Z"
           id="path561"
           style="stroke-width:1.25" /></g></clipPath><clipPath
       clipPathUnits="userSpaceOnUse"
       id="clipPath565"><g
         id="g569"
         transform="matrix(0.70733866,0,0,-0.70733866,-426.79045,195.57913)"><path
           d="M -94.25,-146.625 H 958.125 V 597.5 H -94.25 Z"
           id="path567"
           style="stroke-width:1.25" /></g></clipPath><clipPath
       clipPathUnits="userSpaceOnUse"
       id="clipPath571"><g
         id="g575"
         transform="matrix(0.70733866,0,0,-0.70733866,-395.57913,195.57913)"><path
           d="M -94.25,-146.625 H 958.125 V 597.5 H -94.25 Z"
           id="path573"
           style="stroke-width:1.25" /></g></clipPath><clipPath
       clipPathUnits="userSpaceOnUse"
       id="clipPath577"><g
         id="g581"
         transform="matrix(0.70733866,0,0,-0.70733866,-354.81874,193.54553)"><path
           d="M -94.25,-146.625 H 958.125 V 597.5 H -94.25 Z"
           id="path579"
           style="stroke-width:1.25" /></g></clipPath><clipPath
       clipPathUnits="userSpaceOnUse"
       id="clipPath583"><g
         id="g587"
         transform="matrix(0.70733866,0,0,-0.70733866,-336.51636,216.79929)"><path
           d="M -94.25,-146.625 H 958.125 V 597.5 H -94.25 Z"
           id="path585"
           style="stroke-width:1.25" /></g></clipPath><clipPath
       clipPathUnits="userSpaceOnUse"
       id="clipPath589"><g
         id="g593"
         transform="matrix(0.70733866,0,0,-0.70733866,-323.51901,214.14677)"><path
           d="M -94.25,-146.625 H 958.125 V 597.5 H -94.25 Z"
           id="path591"
           style="stroke-width:1.25" /></g></clipPath><clipPath
       clipPathUnits="userSpaceOnUse"
       id="clipPath595"><g
         id="g599"
         transform="matrix(0.70733866,0,0,-0.70733866,-347.39169,124.93369)"><path
           d="M -94.25,-146.625 H 958.125 V 597.5 H -94.25 Z"
           id="path597"
           style="stroke-width:1.25" /></g></clipPath><clipPath
       clipPathUnits="userSpaceOnUse"
       id="clipPath601"><g
         id="g605"
         transform="matrix(0.70733866,0,0,-0.70733866,-630.94607,165.07515)"><path
           d="M -94.25,-146.625 H 958.125 V 597.5 H -94.25 Z"
           id="path603"
           style="stroke-width:1.25" /></g></clipPath><clipPath
       clipPathUnits="userSpaceOnUse"
       id="clipPath607"><g
         id="g611"
         transform="matrix(0.70733866,0,0,-0.70733866,-552.96198,108.48806)"><path
           d="M -94.25,-146.625 H 958.125 V 597.5 H -94.25 Z"
           id="path609"
           style="stroke-width:1.25" /></g></clipPath><clipPath
       clipPathUnits="userSpaceOnUse"
       id="clipPath613"><g
         id="g617"
         transform="matrix(0.70733866,0,0,-0.70733866,-470.82228,109.28382)"><path
           d="M -94.25,-146.625 H 958.125 V 597.5 H -94.25 Z"
           id="path615"
           style="stroke-width:1.25" /></g></clipPath><clipPath
       clipPathUnits="userSpaceOnUse"
       id="clipPath619"><g
         id="g623"
         transform="matrix(0.70733866,0,0,-0.70733866,-403.18302,108.48806)"><path
           d="M -94.25,-146.625 H 958.125 V 597.5 H -94.25 Z"
           id="path621"
           style="stroke-width:1.25" /></g></clipPath><clipPath
       clipPathUnits="userSpaceOnUse"
       id="clipPath1420"><g
         id="g1426"><g
           id="g1424"
           transform="translate(-44.980592,-45.966264)"><path
             d="M -94.25,-146.625 H 958.125 V 597.5 H -94.25 Z"
             id="path1422"
             style="stroke-width:1.25" /></g></g></clipPath><clipPath
       clipPathUnits="userSpaceOnUse"
       id="clipPath1450"><g
         id="g1456"><g
           id="g1454"
           transform="translate(-44.980585,-45.966268)"><path
             d="M -94.25,-146.625 H 958.125 V 597.5 H -94.25 Z"
             id="path1452"
             style="stroke-width:1.25" /></g></g></clipPath><clipPath
       clipPathUnits="userSpaceOnUse"
       id="clipPath1480"><g
         id="g1486"><g
           id="g1484"
           transform="translate(-44.980587,-45.966268)"><path
             d="M -94.25,-146.625 H 958.125 V 597.5 H -94.25 Z"
             id="path1482"
             style="stroke-width:1.25" /></g></g></clipPath><clipPath
       clipPathUnits="userSpaceOnUse"
       id="clipPath1506"><g
         id="g1512"><g
           id="g1510"
           transform="translate(-44.980588,-45.966265)"><path
             d="M -94.25,-146.625 H 958.125 V 597.5 H -94.25 Z"
             id="path1508"
             style="stroke-width:1.25" /></g></g></clipPath></defs><path
     id="path1932"
     clip-path="none"
     style="fill:#ff3860;fill-opacity:1;stroke-width:1.2499"
     d="M 125.52979 -0.01323198 C 111.13782 3.1874948 96.887658 7.6450799 83.541871 14.366041 C 83.847241 26.156704 84.609559 37.451222 86.154786 48.93086 C 80.969167 52.2531 75.518135 55.105115 70.673219 58.994337 C 65.75196 62.780356 60.725443 66.402414 56.26648 70.830275 C 47.364105 64.942012 37.945486 59.409073 28.233033 54.530226 C 17.769879 65.790734 7.9876795 77.941073 0 91.541335 C 6.0126728 101.26793 12.290514 110.38797 19.072266 119.04011 L 19.27002 119.03462 L 19.27002 202.50142 C 19.422705 202.50242 19.574682 202.50919 19.725952 202.52339 L 70.903932 207.45625 C 73.584399 207.71497 75.684968 209.87328 75.871583 212.5594 L 77.449952 235.15096 L 122.08191 238.33516 L 125.15625 217.48311 C 125.55493 214.78002 127.87311 212.7773 130.6073 212.7773 L 184.59961 212.7773 C 187.33239 212.7773 189.65015 214.78002 190.04883 217.48311 L 193.12317 238.33516 L 237.76978 235.15096 L 239.34632 212.5594 C 239.53435 209.87328 241.6335 207.71638 244.31397 207.45625 L 295.46448 202.52339 C 295.61575 202.50929 295.7659 202.50282 295.91858 202.50142 L 295.91858 195.84187 L 295.94056 195.83455 L 295.94056 119.04011 L 296.12915 119.04011 C 302.90808 110.38797 309.18168 101.26793 315.20142 91.541335 C 307.21233 77.941073 297.41548 65.783665 286.95374 54.530226 C 277.24977 59.414728 267.8269 64.947667 258.92029 70.830275 C 254.46557 66.402414 249.44753 62.780355 244.51355 58.994337 C 239.67146 55.105115 234.21521 52.25317 229.03382 48.93086 C 230.57481 37.455464 231.33628 26.156704 231.64307 14.366041 C 218.28879 7.6450799 204.04661 3.1874948 189.64051 -0.01323198 C 183.88938 9.6525672 178.63062 20.11927 174.04724 30.35481 C 168.61562 29.447183 163.15882 29.110639 157.69043 29.045606 L 157.69043 29.036451 C 157.65223 29.036451 157.61676 29.045606 157.58423 29.045606 C 157.55033 29.045606 157.51376 29.036451 157.47986 29.036451 L 157.47986 29.045606 C 152.00583 29.110636 146.55326 29.447183 141.12305 30.35481 C 136.54533 20.122098 131.2894 9.6568084 125.52979 -0.01323198 z M 85.059816 122.08882 C 102.09549 122.08882 115.89478 135.88477 115.89478 152.90913 C 115.89478 169.94481 102.08842 183.75691 85.059816 183.75691 C 68.038283 183.75691 54.226685 169.9547 54.226685 152.90913 C 54.226685 135.8876 68.035456 122.08882 85.059816 122.08882 z M 230.1178 122.08882 C 247.14358 122.08882 260.95093 135.8876 260.95093 152.90913 C 260.95093 169.9547 247.13933 183.75691 230.1178 183.75691 C 213.07507 183.75691 199.27002 169.94481 199.27002 152.90913 C 199.27002 135.88477 213.08214 122.08882 230.1178 122.08882 z M 157.64466 140.10274 C 163.12717 140.10274 167.57996 144.14795 167.57996 149.12434 L 167.57996 177.51302 C 167.57996 182.49365 163.12717 186.53462 157.64466 186.53462 C 152.16214 186.53462 147.71851 182.49365 147.71851 177.51302 L 147.71851 149.12434 C 147.71851 144.14795 152.16214 140.10274 157.64466 140.10274 z " /><g
     id="g1869"><path
       d="m 206.76941,154.65873 c 0,11.30152 9.15686,20.45696 20.45696,20.45696 11.31283,0 20.4711,-9.15968 20.4711,-20.45696 0,-11.29728 -9.15686,-20.4711 -20.4711,-20.4711 -11.30152,0 -20.45696,9.16817 -20.45696,20.4711"
       style="fill:#ff3860;fill-opacity:1;stroke-width:1.2499"
       id="path1867" /></g><path
     d="m 250.01941,217.90873 -1.58481,22.70482 c -0.19086,2.73702 -2.36804,4.91561 -5.10506,5.11212 l -54.5142,3.88923 c -0.13289,0.01 -0.26578,0.0141 -0.39726,0.0141 -2.70874,0 -5.04567,-1.98773 -5.44576,-4.70779 l -3.12581,-21.19211 h -44.47657 l -3.1258,21.19211 c -0.41989,2.85295 -2.97029,4.9043 -5.84303,4.69365 l -54.5142,-3.88923 c -2.73702,-0.19651 -4.914195,-2.3751 -5.105051,-5.11212 l -1.584814,-22.70482 -46.017562,-4.43635 c 0.02121,4.9453 0.08482,10.36279 0.08482,11.44148 0,48.59059 61.6395,71.95988 138.236477,72.22849 h 0.18803 c 76.59698,-0.26861 138.22234,-23.62376 138.22234,-72.22849 0,-1.09848 0.0664,-6.49335 0.0891,-11.44148 z"
     style="fill:#ff3860;fill-opacity:1;stroke-width:1.2499"
     id="path1923"
     clip-path="none" /><path
     d="m 108.51941,154.65873 c 0,11.30152 -9.159686,20.45696 -20.4711,20.45696 -11.304345,0 -20.4711,-9.15968 -20.4711,-20.45696 0,-11.29728 9.165341,-20.4711 20.4711,-20.4711 11.31,0 20.4711,9.16817 20.4711,20.4711"
     style="fill:#ff3860;fill-opacity:1;stroke-width:1.2499"
     id="path1917"
     clip-path="none" /></svg>
