<?xml version="1.0" encoding="UTF-8" standalone="no"?>
<svg
   id="Layer_1"
   viewBox="0 0 88.194338 33.447383"
   version="1.1"
   sodipodi:docname="logoscratch.svg"
   inkscape:version="1.4 (e7c3feb100, 2024-10-09)"
   width="80.949997"
   height="30.700001"
   xmlns:inkscape="http://www.inkscape.org/namespaces/inkscape"
   xmlns:sodipodi="http://sodipodi.sourceforge.net/DTD/sodipodi-0.dtd"
   xmlns="http://www.w3.org/2000/svg"
   xmlns:svg="http://www.w3.org/2000/svg">
  <defs
     id="defs27" />
  <sodipodi:namedview
     id="namedview25"
     pagecolor="#ffffff"
     bordercolor="#666666"
     borderopacity="1.0"
     inkscape:showpageshadow="2"
     inkscape:pageopacity="0.0"
     inkscape:pagecheckerboard="0"
     inkscape:deskcolor="#d1d1d1"
     showgrid="false"
     inkscape:zoom="20.000001"
     inkscape:cx="44.399998"
     inkscape:cy="11.624999"
     inkscape:window-width="1920"
     inkscape:window-height="1008"
     inkscape:window-x="0"
     inkscape:window-y="0"
     inkscape:window-maximized="1"
     inkscape:current-layer="g1" />
  <style
     id="style2">.st0{fill:#fff}.st1{fill:#f9a83a}</style>
  <g
     id="g1"
     transform="matrix(1.4924255,0,0,1.4924255,0.10772033,3.5157282)">
    <path
       d="m 56.344444,17 c -1.3,0.1 -2.1,0.2 -2.3,0.3 l -0.1,0.1 c -0.3,0.1 -0.7,0.3 -1.2,0.3 -0.6,0 -1.3,-0.2 -1.8,-0.7 -0.2,-0.2 -0.4,-0.4 -0.5,-0.6 h -2.3 c -0.4,0 -0.8,-0.1 -1.1,-0.3 -0.1,0.1 -0.3,0.1 -0.4,0.2 -0.8,0.4 -1.5,0.4 -2,0.4 h -0.5 c -1.5,0 -2.7,-0.5 -3.5,-1.4 -0.5,0.5 -1.2,0.8 -1.9,0.8 l -3.7,0.1 c -1.3,0 -2.5,-1 -2.7,-2.2 -0.5,0.3 -1,0.5 -1.6,0.5 -0.6,0 -1.2,-0.2 -1.7,-0.5 -0.1,-0.1 -0.2,-0.2 -0.3,-0.2 -0.3,0.2 -0.7,0.2 -1.1,0.2 h -0.3 c -0.4,1.2 -1.1,2 -2.2,2.5 -0.5,0.2 -1.1,0.4 -1.6,0.4 -0.5,0 -1.1,-0.1 -1.6,-0.3 -0.5,-0.2 -0.9,-0.5 -1.2,-0.8 -0.2,0.1 -0.4,0.1 -0.6,0.2 l -2.9,0.4 h -0.4 c -0.3,0 -0.5,0 -0.8,-0.1 -0.4,0.4 -0.9,0.6 -1.3,0.8 -0.8,0.4 -1.5,0.4 -2,0.4 h -0.5 c -1.8,0 -3.2,-0.8 -4,-1.9 -0.8,0.5 -1.8,0.8 -2.6999996,0.8 h -0.6 c 0,0.1 -0.1,0.1 -0.1,0.2 -0.5,0.5 -1.2,0.9 -1.9,0.9 h -0.2 c -1.4,0 -2.59999996,-1.1 -2.69999996,-2.6 v -0.1 c 0,-0.5 -0.1,-1.4 0,-2.4 0,-0.7 0.1,-1.8 0.1,-1.8 0,-0.7 0.3,-1.3 0.7,-1.8 -0.4,-0.8 -0.5,-1.7 -0.3,-2.7 V 5.9 c 0.1,-0.6 0.2,-1.5 0.59999996,-2.4 0.7,-1.3 2,-2 3.5,-2 h 0.7 c 0.5,-0.4 1.0999996,-0.7 1.7999996,-0.7 1.5,0 2.7,1.3 2.7,2.8 v 1.1 c 0.5,-0.2 1.1,-0.3 1.7,-0.3 0.3,0 0.5,0 0.8,0.1 0.4,-0.5 1,-0.8 1.6,-0.9 0.1,-0.2 0.2,-0.3 0.3,-0.5 0.4,-0.6 1.1,-1 1.8,-1.1 0.6,-0.1 1.8,-0.2 3.2,-0.2 1.6,0 2.9,0.2 3.9,0.7 0.3,-1.1 1.1,-1.9 2.3,-2.1 l 2.6,-0.4 h 0.4 c 0.8,0 1.5,0.3 2,0.9 0.2,0.2 0.5,0.6 0.6,0.9 l 0.1,0.3 c 0.5,-0.3 1,-0.5 1.6,-0.5 l 3.9,-0.1 c 1.9,0 3.6,-0.1 3.6,-0.2 h 0.2 c 0.7,0 1.5,0.3 2,0.8 0.4,0.4 0.7,0.9 0.8,1.5 h 0.2 c 0.3,0 0.5,0 0.8,0.1 0.4,-0.5 1,-0.8 1.6,-0.9 0.5,-0.7 1.4,-1.3 2.4,-1.3 h 2.6 c 0.5,-0.6 1.2,-1 2.1,-1 h 3.2 c 1.5,0 2.7,1.2 2.8,2.7 0,1.1 -0.6,2.1 -1.5,2.5 v 6.1 c 0.8,0.4 1.4,1.3 1.5,2.3 0.1,1.5 -1.1,2.8 -2.6,2.9 z"
       class="st1"
       id="path8"
       style="fill:#ffffff;fill-opacity:1" />
    <path
       d="m 28.644444,5 -0.7,3.6 2,-0.3 z"
       class="st1"
       id="path10"
       style="fill:#ffffff;fill-opacity:1" />
    <path
       d="m 4.7444444,8.5 c -0.7,-0.1 -1.1,-0.6 -0.9,-2 V 6.3 c 0.2,-1.2 0.3,-1.5 0.9,-1.5 0.2,0 0.4,0.1 0.6,0.3 0.2,0.2 0.6,0.5 0.8,1.1 0.2,0.4 0.2,0.7 0.2999996,1 v 0.4 c 0,0.2 0.2,0.4 0.5,0.5 0.3,0.1 0.6,-0.2 0.7,-0.5 0,0 0.2,-3.8 0.2,-3.9 0,-0.3 -0.3,-0.6 -0.6,-0.6 -0.3,0 -0.6,0.3 -0.6,0.6 v 1.1 c -0.4999996,-0.5 -1.0999996,-1 -1.7999996,-1 -1.9,-0.3 -2.1,1.4 -2.2,2.4 v 0.2 c -0.2,1.9 0.4,3.1 1.9,3.4 1.6,0.3 2.6999996,0.6 2.6999996,1.6 0,0.4 -0.2,0.8 -0.6,1.1 -0.3999996,0.4 -0.9999996,0.5 -1.5999996,0.4 -0.2,0 -0.3,-0.1 -0.5,-0.1 -0.2,-0.1 -0.8,-0.4 -1,-0.8 -0.1,-0.4 -0.2,-0.9 -0.2,-1.2 v -0.2 c 0,-0.3 -0.3,-0.6 -0.6,-0.6 -0.3,0 -0.6,0.3 -0.6,0.6 0,0 0,1.2 -0.1,1.9 -0.1,1.2 0,2.1 0,2.2 0,0.3 0.3,0.6 0.6,0.6 0.3,0 0.6,-0.3 0.6,-0.6 v -1.1 c 0.4,0.3 1,0.6 1.7,0.7 0.9,0.2 1.7999996,-0.1 2.4999996,-0.7 0.6,-0.5 1,-1.3 1,-2 0,-2.5 -2.4999996,-2.9 -3.6999996,-3.1 M 21.544444,6.8 c -0.1,0.1 -0.2,0.2 -0.4,0.3 -0.1,0.1 -0.4,0.2 -0.5,0.2 l -0.3,0.1 c -0.4,0.2 -1,0.3 -1.6,0.4 V 5 c 1.6,0 3,0.1 3.3,0.6 v 0.2 c 0,0.2 -0.2,0.6 -0.5,1 m 3.5,5.4 c -0.3,-0.1 -0.7,0.1 -0.8,0.4 -0.2,0.7 -0.4,0.7 -0.5,0.8 -0.1,0.1 -0.3,0 -0.6,-0.1 0,0 -0.1,-0.2 -0.2,-0.3 -0.1,-0.2 -0.2,-1 -0.2,-1.5 0,-1.8 -0.4,-2.8 -0.9,-3.3 0.3,-0.2 0.6,-0.5 0.6,-0.5 0.7,-1 0.9,-1.8 0.5,-2.5 -1,-1.7 -5.3,-1.2 -6.7,-1 -0.3,0 -0.6,0.4 -0.5,0.7 0,0.3 0.4,0.6 0.7,0.5 0.3,0 0.6,-0.1 0.9,-0.1 v 2.8 h -0.3 c -0.3,0 -0.6,0.3 -0.6,0.6 0,0.3 0.3,0.6 0.6,0.6 h 0.3 v 3.5 l -0.8,0.1 c -0.3,0 -0.6,0.4 -0.5,0.7 0,0.3 0.4,0.6 0.7,0.5 l 2.9,-0.4 c 0.3,0 0.6,-0.4 0.5,-0.7 0,-0.3 -0.4,-0.6 -0.7,-0.5 l -0.9,0.1 V 9.1 c 0.6,-0.1 1.1,-0.2 1.6,-0.4 h 0.2 c 0.2,0 0.4,0.1 0.5,0.3 0.2,0.3 0.4,0.9 0.5,2.4 0,0.3 0.1,1.5 0.3,2 0.1,0.2 0.4,0.7 0.9,0.9 0.4,0.1 0.9,0.3 1.5,0 0.5,-0.3 0.9,-0.6 1.1,-1.5 0.4,-0.2 0.2,-0.5 -0.1,-0.6 m 21.8,-1.9 c -0.3,0 -0.6,0.3 -0.6,0.6 v 0.8 c 0,0.3 -0.1,0.7 -0.2,0.8 -0.1,0.2 -0.2,0.3 -0.4,0.5 -0.1,0.1 -0.3,0.2 -0.5,0.3 -0.2,0.1 -0.3,0.1 -0.7,0.1 h -0.4 c -1.6,0.1 -1.8,-1.2 -1.8,-1.5 V 9.3 c 0.1,-1 0.3,-1.7 0.7,-2 0.3,-0.2 0.7,-0.1 1.4,0.1 0.8,0.3 1.3,1.2 1.4,1.2 0.1,0.2 0.4,0.3 0.7,0.3 0.3,-0.1 0.4,-0.3 0.4,-0.6 V 5.6 c 0,-0.3 -0.3,-0.6 -0.6,-0.6 -0.3,0 -0.6,0.3 -0.6,0.6 v 1.1 c -0.2,-0.2 -0.5,-0.3 -0.8,-0.5 -0.3,-0.2 -1.5,-0.7 -2.4,-0.1 -0.7,0.5 -1.2,1.4 -1.3,2.9 v 2.8 c 0.1,0.9 0.8,2.7 3,2.7 h 0.3 c 0.4,0 0.8,0 1.2,-0.2 0.3,-0.1 0.6,-0.3 0.9,-0.6 0.2,-0.2 0.3,-0.4 0.5,-0.7 0.2,-0.4 0.3,-1.1 0.4,-1.3 v -1 c 0,-0.2 -0.3,-0.4 -0.6,-0.4 m 9.9,4 c 0,-0.3 -0.3,-0.6 -0.6,-0.6 -0.2,0 -0.5,0 -0.8,0.1 0,-1 0,-3.1 -0.1,-9.9 h 0.9 c 0.3,0 0.6,-0.3 0.6,-0.6 0,-0.3 -0.3,-0.6 -0.6,-0.6 l -3.2,0.1 c -0.3,0 -0.6,0.3 -0.6,0.6 0,0.3 0.3,0.6 0.6,0.6 h 1 v 4.2 l -3.6,0.6 V 5 h 1 c 0.3,0 0.6,-0.3 0.6,-0.6 0,-0.3 -0.3,-0.6 -0.6,-0.6 h -3.2 c -0.3,0 -0.6,0.3 -0.6,0.6 0,0.3 0.3,0.6 0.6,0.6 h 1 v 8.1 h -1 c -0.3,0 -0.6,0.3 -0.6,0.6 0,0.3 0.3,0.6 0.6,0.6 l 3.3,0.1 c 0.3,0 0.6,-0.3 0.6,-0.6 0,-0.3 -0.3,-0.6 -0.6,-0.6 h -1 v -3.1 l 3.6,-0.6 v 4.6 c -0.8,0.2 -1.4,0.2 -1.7,0.6 -0.2,0.2 -0.2,0.6 0.1,0.8 0.2,0.2 0.5,0.1 0.9,0 0.3,-0.2 1.5,-0.3 2.9,-0.4 0.3,-0.2 0.5,-0.5 0.5,-0.8"
       class="st0"
       id="path12"
       style="fill:#000000;fill-opacity:1" />
    <path
       d="m 27.944444,8.6 0.7,-3.6 1.3,3.3 z m 5.3,1 c -0.2,0.1 -0.5,0.2 -1.1,0.5 l -0.8,-1.9 -2.3,-5.5 c 0,-0.1 -0.1,-0.3 -0.2,-0.3 -0.1,-0.1 -0.3,-0.2 -0.5,-0.2 l -2.6,0.3 c -0.3,0 -0.6,0.3 -0.5,0.7 0,0.3 0.3,0.6 0.7,0.5 0,0 1,-0.1 1.8,-0.2 -0.2,1.1 -1.1,5.6 -1.4,7 l -1.8,-0.1 c -0.3,0 -0.6,0.2 -0.6,0.6 0,0.3 0.2,0.6 0.6,0.6 l 3,0.1 c 0.3,0 0.6,-0.2 0.6,-0.6 0,-0.3 -0.2,-0.6 -0.6,-0.6 l 0.1,-0.9 2.8,-0.5 0.6,1.5 c -0.5,0.3 -0.7,0.4 -1,0.7 -0.2,0.3 -0.1,0.6 0.1,0.8 0.3,0.2 0.7,0.1 0.9,-0.1 0.3,-0.4 1.4,-0.9 2.5,-1.3 0.3,-0.1 0.5,-0.5 0.4,-0.8 -0.1,-0.2 -0.4,-0.4 -0.7,-0.3"
       class="st0"
       id="path14"
       style="fill:#000000;fill-opacity:1" />
    <path
       d="m 40.444444,3.5 c 0,0 -1.8,0.1 -3.8,0.2 l -3.9,0.1 c -0.2,0 -0.3,0.1 -0.5,0.2 -0.1,0.1 -0.2,0.3 -0.1,0.5 l 0.5,3 c 0,0.3 0.4,0.6 0.7,0.5 0.3,0 0.5,-0.3 0.5,-0.6 0,0 -0.2,-1.6 -0.4,-2.4 h 2.6 v 7.9 h -1.3 c -0.3,0 -0.6,0.3 -0.6,0.6 0,0.3 0.3,0.6 0.6,0.6 l 3.7,-0.1 c 0.3,0 0.6,-0.3 0.6,-0.6 0,-0.3 -0.3,-0.6 -0.6,-0.6 h -1.2 V 4.9 c 1,0 1.9,-0.1 2.5,-0.1 V 6 c 0,0.6 0.1,0.8 0.1,0.9 0.2,0.3 0.5,0.4 0.8,0.2 0.2,-0.1 0.3,-0.4 0.3,-0.6 0,0 0,-1.4 0.1,-2.2 0,-0.2 0,-0.3 -0.2,-0.5 0,-0.2 -0.2,-0.3 -0.4,-0.3 m -25.5,7.4 c -0.3,0 -0.6,0.3 -0.6,0.6 v 0.9 c 0,0.2 -0.1,0.6 -0.2,0.8 -0.1,0.2 -0.2,0.3 -0.4,0.5 -0.1,0.1 -0.3,0.2 -0.5,0.3 -0.2,0.1 -0.3,0.1 -0.7,0.1 h -0.4 c -1.6,0 -1.8,-1.2 -1.8,-1.5 V 10 c 0.1,-1 0.3,-1.7 0.7,-2 0.3,-0.2 0.7,-0.1 1.4,0.1 0.8,0.3 1.4,1.2 1.4,1.2 0.1,0.2 0.4,0.3 0.7,0.3 0.3,-0.1 0.4,-0.3 0.4,-0.6 V 6.3 c 0,-0.3 -0.3,-0.6 -0.6,-0.6 -0.3,0 -0.6,0.3 -0.6,0.6 v 1.1 c -0.2,-0.2 -0.5,-0.4 -0.8,-0.5 -0.4,-0.2 -1.5,-0.6 -2.5,-0.1 -0.7,0.5 -1.2,1.4 -1.3,2.9 v 2.8 c 0.1,0.9 0.8,2.7 3.1,2.7 h 0.3 c 0.4,0 0.8,0 1.2,-0.2 0.3,-0.1 0.6,-0.3 0.9,-0.6 0.2,-0.2 0.3,-0.4 0.5,-0.7 0.2,-0.4 0.3,-1.1 0.4,-1.3 v -1 c 0,-0.2 -0.3,-0.5 -0.6,-0.5"
       class="st0"
       id="path16"
       style="fill:#000000;fill-opacity:1" />
  </g>
</svg>
