<?xml version="1.0" encoding="UTF-8" standalone="no"?>
<svg
   id="Layer_1"
   viewBox="0 0 227.64908 82.269891"
   version="1.1"
   sodipodi:docname="logoscratch.svg"
   inkscape:version="1.4 (e7c3feb100, 2024-10-09)"
   width="208.95"
   height="75.512245"
   xmlns:inkscape="http://www.inkscape.org/namespaces/inkscape"
   xmlns:sodipodi="http://sodipodi.sourceforge.net/DTD/sodipodi-0.dtd"
   xmlns="http://www.w3.org/2000/svg"
   xmlns:svg="http://www.w3.org/2000/svg">
  <defs
     id="defs27" />
  <sodipodi:namedview
     id="namedview25"
     pagecolor="#ffffff"
     bordercolor="#666666"
     borderopacity="1.0"
     inkscape:showpageshadow="2"
     inkscape:pageopacity="0.0"
     inkscape:pagecheckerboard="0"
     inkscape:deskcolor="#d1d1d1"
     showgrid="false"
     inkscape:zoom="3.5355341"
     inkscape:cx="44.264882"
     inkscape:cy="11.737972"
     inkscape:window-width="1920"
     inkscape:window-height="1008"
     inkscape:window-x="0"
     inkscape:window-y="0"
     inkscape:window-maximized="1"
     inkscape:current-layer="g1" />
  <style
     id="style2">.st0{fill:#fff}.st1{fill:#f9a83a}</style>
  <g
     id="g1"
     transform="matrix(1.4924255,0,0,1.4924255,0.10772033,3.5157282)">
    <path
       d="m 145.54747,43.913947 c -3.35813,0.258317 -5.42467,0.516635 -5.9413,0.774952 l -0.25832,0.258317 c -0.77495,0.258318 -1.80822,0.774952 -3.09981,0.774952 -1.5499,0 -3.35812,-0.516634 -4.64971,-1.808221 -0.51663,-0.516635 -1.03327,-1.033269 -1.29159,-1.549904 h -5.9413 c -1.03326,0 -2.06653,-0.258317 -2.84149,-0.774952 -0.25831,0.258317 -0.77495,0.258317 -1.03327,0.516635 -2.06653,1.033269 -3.87476,1.033269 -5.16634,1.033269 h -1.29159 c -3.87476,0 -6.97457,-1.291587 -9.04111,-3.616443 -1.29158,1.291587 -3.0998,2.066539 -4.90802,2.066539 l -9.557746,0.258317 c -3.358126,0 -6.457934,-2.583173 -6.974568,-5.682981 -1.291587,0.774952 -2.583174,1.291587 -4.133078,1.291587 -1.549904,0 -3.099808,-0.516635 -4.391394,-1.291587 -0.258318,-0.258317 -0.516635,-0.516635 -0.774952,-0.516635 -0.774952,0.516635 -1.808222,0.516635 -2.841491,0.516635 h -0.774952 c -1.033269,3.099808 -2.841491,5.166347 -5.682981,6.457933 -1.291587,0.516635 -2.841491,1.03327 -4.133078,1.03327 -1.291586,0 -2.84149,-0.258318 -4.133077,-0.774952 -1.291587,-0.516635 -2.324856,-1.291587 -3.099808,-2.066539 -0.516635,0.258317 -1.033269,0.258317 -1.549904,0.516635 l -7.491203,1.033269 h -1.033269 c -0.774952,0 -1.291587,0 -2.066539,-0.258317 -1.033269,1.033269 -2.324856,1.549904 -3.358125,2.066538 -2.066539,1.03327 -3.87476,1.03327 -5.166347,1.03327 h -1.291587 c -4.649712,0 -8.266154,-2.066539 -10.332693,-4.90803 -2.066539,1.291587 -4.649712,2.066539 -6.974567,2.066539 h -1.549904 c 0,0.258317 -0.258317,0.258317 -0.258317,0.516635 -1.291587,1.291586 -3.0998083,2.324856 -4.9080297,2.324856 H 7.0893756 c -3.6164426,0 -6.71625057,-2.841491 -6.9745679,-6.716251 v -0.258317 c 0,-1.291587 -0.25831733,-3.616443 0,-6.199616 0,-1.808222 0.25831733,-4.649712 0.25831733,-4.649712 0,-1.808222 0.77495197,-3.358126 1.80822137,-4.649713 C 1.148077,20.665387 0.8897597,18.340531 1.4063944,15.757357 V 15.240723 C 1.6647117,13.690819 1.923029,11.365963 2.9562983,9.0411067 4.7645196,5.6829814 8.122645,3.87476 11.997405,3.87476 h 1.808221 c 1.291587,-1.0332693 2.84149,-1.8082213 4.649711,-1.8082213 3.87476,0 6.974568,3.3581253 6.974568,7.2328854 v 2.8414909 c 1.291587,-0.516635 2.841491,-0.774952 4.391395,-0.774952 0.774952,0 1.291587,0 2.066539,0.258317 1.033269,-1.291587 2.583173,-2.0665386 4.133077,-2.3248559 0.258317,-0.5166347 0.516635,-0.774952 0.774952,-1.2915867 1.033269,-1.549904 2.841491,-2.5831734 4.649712,-2.8414907 1.549904,-0.2583173 4.649712,-0.5166347 8.266155,-0.5166347 4.133077,0 7.491203,0.5166347 10.074376,1.8082214 C 60.561063,3.6164427 62.627602,1.549904 65.72741,1.0332693 L 72.44366,0 h 1.03327 c 2.066538,0 3.87476,0.774952 5.166346,2.324856 0.516635,0.5166347 1.291587,1.549904 1.549904,2.324856 l 0.258318,0.774952 C 81.743084,4.649712 83.034671,4.1330774 84.584575,4.1330774 L 94.658951,3.87476 c 4.90803,0 9.299429,-0.2583173 9.299429,-0.5166346 h 0.51663 c 1.80822,0 3.87476,0.774952 5.16635,2.0665386 1.03327,1.0332694 1.80822,2.324856 2.06654,3.8747601 h 0.51663 c 0.77495,0 1.29159,0 2.06654,0.2583173 1.03327,-1.2915867 2.58317,-2.0665387 4.13308,-2.324856 1.29158,-1.8082214 3.61644,-3.3581254 6.19961,-3.3581254 h 6.71625 c 1.29159,-1.549904 3.09981,-2.5831733 5.42467,-2.5831733 h 8.26615 c 3.87476,0 6.97457,3.099808 7.23289,6.974568 0,2.8414903 -1.54991,5.4246643 -3.87476,6.4579333 v 15.757358 c 2.06654,1.033269 3.61644,3.358125 3.87476,5.941298 0.25831,3.87476 -2.84149,7.232886 -6.71625,7.491203 z"
       class="st1"
       id="path8"
       style="fill:#ff3860;fill-opacity:1;stroke-width:2.58317" />
    <path
       d="m 73.993564,12.915867 -1.808221,9.299424 5.166347,-0.774952 z"
       class="st1"
       id="path10"
       style="fill:#ffffff;fill-opacity:0;stroke-width:2.58317" />
    <path
       d="M 12.255722,21.956973 C 10.447501,21.698656 9.4142317,20.407069 9.9308663,16.790627 v -0.516635 c 0.5166347,-3.099808 0.7749517,-3.87476 2.3248557,-3.87476 0.516635,0 1.03327,0.258317 1.549904,0.774952 0.516635,0.516635 1.549904,1.291587 2.066539,2.841491 0.516635,1.033269 0.516635,1.808221 0.774951,2.583173 v 1.033269 c 0,0.516635 0.516635,1.03327 1.291587,1.291587 0.774952,0.258317 1.549904,-0.516635 1.808221,-1.291587 0,0 0.516635,-9.8160583 0.516635,-10.0743756 0,-0.774952 -0.774952,-1.549904 -1.549904,-1.549904 -0.774952,0 -1.549904,0.774952 -1.549904,1.549904 V 12.399232 C 15.872165,11.107645 14.322261,9.8160587 12.51404,9.8160587 7.6060103,9.0411067 7.0893756,13.432501 6.8310583,16.015675 v 0.516634 c -0.5166347,4.90803 1.0332693,8.007838 4.9080297,8.78279 4.133077,0.774952 6.974567,1.549904 6.974567,4.133077 0,1.03327 -0.516635,2.066539 -1.549904,2.841491 -1.033269,1.033269 -2.583173,1.291587 -4.133077,1.033269 -0.516634,0 -0.774952,-0.258317 -1.291586,-0.258317 C 11.222453,32.806302 9.672549,32.03135 9.1559143,30.99808 8.897597,29.964811 8.6392797,28.673224 8.6392797,27.898272 v -0.516634 c 0,-0.774952 -0.7749521,-1.549905 -1.5499041,-1.549905 -0.774952,0 -1.549904,0.774953 -1.549904,1.549905 0,0 0,3.099808 -0.2583173,4.908029 -0.2583173,3.099808 0,5.424664 0,5.682981 0,0.774952 0.774952,1.549904 1.549904,1.549904 0.774952,0 1.549904,-0.774952 1.549904,-1.549904 v -2.84149 c 1.0332694,0.774952 2.5831737,1.549904 4.3913947,1.808221 2.324856,0.516635 4.649711,-0.258317 6.457932,-1.808221 1.549904,-1.291587 2.583174,-3.358126 2.583174,-5.166347 0,-6.457934 -6.457933,-7.491203 -9.557741,-8.007838 m 43.397312,-4.391394 c -0.258318,0.258317 -0.516635,0.516634 -1.03327,0.774952 -0.258317,0.258317 -1.033269,0.516634 -1.291586,0.516634 l -0.774952,0.258318 c -1.03327,0.516634 -2.583174,0.774952 -4.133078,1.033269 v -7.232885 c 4.133078,0 7.74952,0.258317 8.524472,1.549904 v 0.516634 c 0,0.516635 -0.516634,1.549904 -1.291586,2.583174 m 9.041106,13.949136 c -0.774952,-0.258317 -1.808221,0.258317 -2.066538,1.033269 -0.516635,1.808222 -1.03327,1.808222 -1.291587,2.066539 -0.258317,0.258317 -0.774952,0 -1.549904,-0.258317 0,0 -0.258317,-0.516635 -0.516635,-0.774952 -0.258317,-0.516635 -0.516634,-2.583174 -0.516634,-3.87476 0,-4.649713 -1.03327,-7.232886 -2.324856,-8.524473 0.774952,-0.516634 1.549904,-1.291586 1.549904,-1.291586 1.808221,-2.583174 2.324856,-4.649712 1.291586,-6.457934 -2.583173,-4.3913943 -13.690818,-3.099808 -17.307261,-2.583173 -0.774952,0 -1.549904,1.033269 -1.291587,1.808221 0,0.774952 1.033269,1.549904 1.808221,1.291587 0.774953,0 1.549905,-0.258317 2.324857,-0.258317 v 7.232885 h -0.774952 c -0.774952,0 -1.549905,0.774952 -1.549905,1.549904 0,0.774952 0.774953,1.549904 1.549905,1.549904 h 0.774952 v 9.041107 l -2.066539,0.258317 c -0.774952,0 -1.549904,1.03327 -1.291587,1.808222 0,0.774952 1.033269,1.549904 1.808222,1.291586 l 7.491202,-1.033269 c 0.774952,0 1.549904,-1.033269 1.291587,-1.808221 0,-0.774952 -1.033269,-1.549904 -1.808221,-1.291587 l -2.324856,0.258317 v -9.041107 c 1.549904,-0.258317 2.84149,-0.516634 4.133077,-1.033269 h 0.516635 c 0.516634,0 1.033269,0.258317 1.291586,0.774952 0.516635,0.774952 1.03327,2.324856 1.291587,6.199616 0,0.774952 0.258317,3.87476 0.774952,5.166347 0.258317,0.516635 1.033269,1.808221 2.324856,2.324856 1.033269,0.258317 2.324856,0.774952 3.87476,0 1.291587,-0.774952 2.324856,-1.549904 2.841491,-3.87476 1.033269,-0.516635 0.516634,-1.291587 -0.258318,-1.549904 m 56.31318,-4.908029 c -0.77495,0 -1.5499,0.774952 -1.5499,1.549904 v 2.066538 c 0,0.774952 -0.25832,1.808222 -0.51664,2.066539 -0.25832,0.516635 -0.51663,0.774952 -1.03327,1.291587 -0.25832,0.258317 -0.77495,0.516634 -1.29159,0.774952 -0.51663,0.258317 -0.77495,0.258317 -1.80822,0.258317 h -1.03327 c -4.13307,0.258317 -4.64971,-3.099808 -4.64971,-3.87476 v -6.716251 c 0.25832,-2.583173 0.77495,-4.391395 1.80822,-5.166347 0.77496,-0.516634 1.80822,-0.258317 3.61645,0.258318 2.06653,0.774952 3.35812,3.099808 3.61644,3.099808 0.25832,0.516634 1.03327,0.774952 1.80822,0.774952 0.77495,-0.258318 1.03327,-0.774952 1.03327,-1.549904 v -6.974568 c 0,-0.774952 -0.77495,-1.549904 -1.5499,-1.549904 -0.77496,0 -1.54991,0.774952 -1.54991,1.549904 v 2.84149 c -0.51663,-0.516634 -1.29159,-0.774952 -2.06654,-1.291586 -0.77495,-0.516635 -3.87476,-1.808222 -6.19961,-0.258318 -1.80822,1.291587 -3.09981,3.616443 -3.35813,7.491203 v 7.232886 c 0.25832,2.324856 2.06654,6.974568 7.74952,6.974568 h 0.77495 c 1.03327,0 2.06654,0 3.09981,-0.516635 0.77495,-0.258317 1.54991,-0.774952 2.32486,-1.549904 0.51663,-0.516635 0.77495,-1.033269 1.29158,-1.808221 0.51664,-1.03327 0.77496,-2.841491 1.03327,-3.358126 v -2.583173 c 0,-0.516635 -0.77495,-1.033269 -1.5499,-1.033269 m 25.57342,10.332693 c 0,-0.774952 -0.77496,-1.549904 -1.54991,-1.549904 -0.51663,0 -1.29159,0 -2.06654,0.258317 0,-2.583173 0,-8.007837 -0.25831,-25.573416 h 2.32485 c 0.77495,0 1.54991,-0.7749519 1.54991,-1.5499039 0,-0.7749521 -0.77496,-1.5499041 -1.54991,-1.5499041 l -8.26615,0.2583174 c -0.77496,0 -1.54991,0.774952 -1.54991,1.549904 0,0.774952 0.77495,1.5499036 1.54991,1.5499036 h 2.58317 v 10.849328 l -9.29942,1.549904 v -9.816058 h 2.58317 c 0.77495,0 1.5499,-0.774952 1.5499,-1.549904 0,-0.774952 -0.77495,-1.5499043 -1.5499,-1.5499043 h -8.26616 c -0.77495,0 -1.5499,0.7749523 -1.5499,1.5499043 0,0.774952 0.77495,1.549904 1.5499,1.549904 h 2.58318 v 20.923704 h -2.58318 c -0.77495,0 -1.5499,0.774952 -1.5499,1.549904 0,0.774952 0.77495,1.549904 1.5499,1.549904 l 8.52448,0.258317 c 0.77495,0 1.5499,-0.774952 1.5499,-1.549904 0,-0.774952 -0.77495,-1.549904 -1.5499,-1.549904 h -2.58318 v -8.007837 l 9.29943,-1.549904 v 11.882597 c -2.06654,0.516635 -3.61645,0.516635 -4.3914,1.549904 -0.51663,0.516635 -0.51663,1.549904 0.25832,2.066539 0.51663,0.516635 1.29159,0.258317 2.32486,0 0.77495,-0.516635 3.87476,-0.774952 7.4912,-1.033269 0.77495,-0.516635 1.29159,-1.291587 1.29159,-2.066539"
       class="st0"
       id="path12"
       style="fill:#ffffff;fill-opacity:1;stroke-width:2.58317" />
    <path
       d="m 72.185343,22.215291 1.808221,-9.299424 3.358126,8.524472 z m 13.690819,2.583173 c -0.516635,0.258317 -1.291587,0.516635 -2.841491,1.291587 L 80.968132,21.182021 75.026834,6.974568 c 0,-0.2583173 -0.258318,-0.774952 -0.516635,-0.774952 C 74.251882,5.9412987 73.735247,5.6829814 73.218612,5.6829814 l -6.71625,0.774952 c -0.774952,0 -1.549904,0.774952 -1.291587,1.8082213 0,0.774952 0.774952,1.549904 1.808221,1.2915867 0,0 2.583174,-0.2583173 4.649712,-0.5166347 -0.516634,2.8414903 -2.84149,14.4657703 -3.616442,18.0822133 l -4.649712,-0.258317 c -0.774952,0 -1.549904,0.516635 -1.549904,1.549904 0,0.774952 0.516634,1.549904 1.549904,1.549904 l 7.74952,0.258317 c 0.774952,0 1.549904,-0.516634 1.549904,-1.549904 0,-0.774952 -0.516635,-1.549904 -1.549904,-1.549904 l 0.258317,-2.324856 7.232885,-1.291587 1.549904,3.874761 c -1.291586,0.774952 -1.808221,1.033269 -2.583173,1.808221 -0.516635,0.774952 -0.258317,1.549904 0.258317,2.066539 0.774952,0.516634 1.808222,0.258317 2.324856,-0.258318 0.774952,-1.033269 3.616443,-2.324856 6.457934,-3.358125 0.774952,-0.258317 1.291586,-1.291587 1.033269,-2.066539 -0.258317,-0.516635 -1.033269,-1.033269 -1.808221,-0.774952"
       class="st0"
       id="path14"
       style="fill:#ffffff;fill-opacity:1;stroke-width:2.58317" />
    <path
       d="m 104.47501,9.0411067 c 0,0 -4.649712,0.2583174 -9.816059,0.5166347 L 84.584575,9.8160587 c -0.516635,0 -0.774952,0.2583173 -1.291587,0.5166343 -0.258317,0.258318 -0.516634,0.774952 -0.258317,1.291587 l 1.291587,7.74952 c 0,0.774952 1.033269,1.549904 1.808221,1.291587 0.774952,0 1.291587,-0.774952 1.291587,-1.549904 0,0 -0.516635,-4.133078 -1.03327,-6.199616 h 6.716251 v 20.407069 h -3.358125 c -0.774952,0 -1.549904,0.774952 -1.549904,1.549904 0,0.774952 0.774952,1.549904 1.549904,1.549904 l 9.557741,-0.258317 c 0.774957,0 1.549907,-0.774952 1.549907,-1.549904 0,-0.774952 -0.77495,-1.549904 -1.549907,-1.549904 h -3.099808 v -20.40707 c 2.583174,0 4.908025,-0.258317 6.457935,-0.258317 v 3.099808 c 0,1.549904 0.25832,2.066539 0.25832,2.324856 0.51663,0.774952 1.29158,1.033269 2.06653,0.516635 0.51664,-0.258318 0.77496,-1.03327 0.77496,-1.549904 0,0 0,-3.616443 0.25831,-5.682982 0,-0.516634 0,-0.774952 -0.51663,-1.2915863 0,-0.5166346 -0.51664,-0.774952 -1.03327,-0.774952 M 38.604089,28.15659 c -0.774952,0 -1.549904,0.774952 -1.549904,1.549904 v 2.324856 c 0,0.516634 -0.258317,1.549904 -0.516634,2.066538 -0.258318,0.516635 -0.516635,0.774952 -1.03327,1.291587 -0.258317,0.258317 -0.774952,0.516635 -1.291586,0.774952 -0.516635,0.258317 -0.774952,0.258317 -1.808222,0.258317 h -1.033269 c -4.133077,0 -4.649712,-3.099808 -4.649712,-3.87476 v -6.716251 c 0.258317,-2.583173 0.774952,-4.391394 1.808221,-5.166346 0.774952,-0.516635 1.808222,-0.258318 3.616443,0.258317 2.066539,0.774952 3.616443,3.099808 3.616443,3.099808 0.258317,0.516635 1.033269,0.774952 1.808221,0.774952 0.774952,-0.258317 1.033269,-0.774952 1.033269,-1.549904 v -6.974568 c 0,-0.774952 -0.774952,-1.549904 -1.549904,-1.549904 -0.774952,0 -1.549904,0.774952 -1.549904,1.549904 v 2.841491 c -0.516634,-0.516635 -1.291586,-1.03327 -2.066538,-1.291587 -1.03327,-0.516635 -3.87476,-1.549904 -6.457934,-0.258317 -1.808221,1.291586 -3.099808,3.616442 -3.358125,7.491202 v 7.232886 c 0.258317,2.324856 2.066539,6.974568 8.007837,6.974568 h 0.774952 c 1.03327,0 2.066539,0 3.099808,-0.516635 0.774952,-0.258317 1.549904,-0.774952 2.324856,-1.549904 0.516635,-0.516634 0.774952,-1.033269 1.291587,-1.808221 0.516635,-1.033269 0.774952,-2.841491 1.033269,-3.358125 v -2.583174 c 0,-0.516634 -0.774952,-1.291586 -1.549904,-1.291586"
       class="st0"
       id="path16"
       style="fill:#ffffff;fill-opacity:1;stroke-width:2.58317" />
  </g>
</svg>
